<svg width="50" height="26" viewBox="0 0 50 26" fill="none" xmlns="http://www.w3.org/2000/svg">
<path fill-rule="evenodd" clip-rule="evenodd" d="M47.3393 3.73498C37.9549 21.1849 19.2088 28.2793 1.79764 18.4554C1.21802 18.1283 0.482994 18.3328 0.155871 18.9053C-0.171252 19.488 0.0332222 20.224 0.612843 20.5511C19.2752 31.0906 39.4024 23.577 49.4615 4.8799C49.7763 4.29722 49.5566 3.56109 48.9708 3.24419C48.385 2.93751 47.6541 3.15229 47.3393 3.73498Z" fill="#A0A0A0"/>
<path d="M16.4494 10.9715C18.3879 10.9715 19.9594 9.40009 19.9594 7.46159C19.9594 5.5231 18.3879 3.95166 16.4494 3.95166C14.5109 3.95166 12.9395 5.5231 12.9395 7.46159C12.9395 9.40009 14.5109 10.9715 16.4494 10.9715Z" fill="#A0A0A0"/>
<path d="M30.9804 7.23764C32.881 7.23764 34.4218 5.69692 34.4218 3.79631C34.4218 1.8957 32.881 0.35498 30.9804 0.35498C29.0798 0.35498 27.5391 1.8957 27.5391 3.79631C27.5391 5.69692 29.0798 7.23764 30.9804 7.23764Z" fill="#A0A0A0"/>
</svg>
