<svg width="154" height="30" viewBox="0 0 154 30" fill="none" xmlns="http://www.w3.org/2000/svg">
<path fill-rule="evenodd" clip-rule="evenodd" d="M44.9142 4.78459C37.1762 5.70901 29.5145 6.90635 21.8638 8.47495C18.2692 9.21012 16.5137 9.62507 13.2426 10.5277C12.9118 10.6186 12.174 10.7351 11.8178 10.8479C11.5452 10.9352 11.3708 11.059 11.2799 11.1463C10.9419 11.4775 10.9274 11.8379 11.0546 12.1654C11.1127 12.3219 11.2545 12.613 11.7197 12.7622C13.7332 13.421 15.7795 13.9487 17.8439 14.3672C13.8314 14.611 9.96055 14.833 5.88257 15.1788C3.88356 15.3498 1.1373 15.6192 0.80401 15.6701C-0.0337566 15.7939 -0.00395601 16.6383 0.00149583 16.6856C0.00912842 16.7474 0.115622 17.5008 0.933762 17.4862C26.745 17.0895 52.5141 16.096 78.3413 16.0669C78.443 16.0669 85.3669 16.0887 91.2221 16.2379C88.7906 16.4053 85.803 16.5764 82.2521 16.7656C65.7221 17.6464 49.163 18.0795 32.6584 19.437C24.6551 20.0958 24.8477 20.0957 16.9607 21.0128C12.5048 21.5296 12.701 21.4423 8.14801 22.192C7.74639 22.2575 6.92061 22.1884 6.48701 22.2539C6.17262 22.3049 5.94509 22.4214 5.80952 22.5305C5.58527 22.7162 5.47297 22.9417 5.4428 23.1965C5.417 23.4149 5.44244 23.717 5.72194 24.0409C6.01816 24.3866 6.50627 24.6923 7.1714 24.9143C7.93902 25.1691 8.98286 25.3329 10.175 25.4202C14.5038 25.7405 20.9297 25.0964 22.4162 25.0818C33.5198 24.9617 44.6052 24.2483 55.7088 23.9718C55.7052 24.0336 55.7052 24.0918 55.7125 24.1501C55.7379 24.3866 55.8433 24.6596 56.1341 24.8962C56.4358 25.1364 57.3226 25.4311 58.5111 25.6568C59.616 25.8679 61.0189 26.0717 62.3346 26.2646C60.71 26.4102 59.0199 26.5885 57.9368 26.7778C57.468 26.8615 56.2467 26.9888 56.0796 27.0544C55.5271 27.2727 55.4871 27.724 55.4908 27.9241C55.4908 28.037 55.5343 28.7576 56.4175 28.8449C64.0211 29.6019 71.7627 29.067 79.3262 29.9987C79.8242 30.0606 80.2785 29.7075 80.3403 29.2089C80.4021 28.7103 80.0495 28.2553 79.5516 28.1935C75.6335 27.7094 71.6682 27.6185 67.6956 27.5384C68.1281 27.3128 68.2735 26.967 68.3062 26.734C68.3426 26.4538 68.2989 26.0717 67.8628 25.7405C67.6483 25.5767 67.1395 25.3474 66.2272 25.1072C65.0242 24.7906 62.4037 24.4594 60.223 24.11C60.939 24.019 61.655 23.9353 62.3746 23.8589C67.7719 23.8043 74.1833 23.7898 79.1372 23.7716C83.1534 23.7606 87.275 23.7133 88.1619 23.6478C88.4708 23.626 88.6452 23.5459 88.6925 23.5241C88.8851 23.4222 88.9869 23.2911 89.0487 23.1892C89.234 22.8835 89.2377 22.5779 89.0669 22.2685C89.0378 22.2176 88.8451 21.8427 88.2309 21.7844C79.6352 21.0056 70.8686 21.122 62.2692 22.0428C61.0153 22.0537 59.8195 22.0719 58.711 22.0901C46.6006 22.2939 34.5084 23.1311 22.398 23.2621C20.9697 23.2766 14.929 23.8881 10.6657 23.6297C13.0572 23.2548 13.6424 23.2292 17.1715 22.8216C25.0258 21.9081 24.8332 21.9046 32.8074 21.2495C49.2938 19.8956 65.8384 19.4625 82.3466 18.5817C92.029 18.0649 97.6153 17.6537 99.1782 17.1478C99.8869 16.9185 100.149 16.5073 100.218 16.2561C100.305 15.9577 100.272 15.6411 100.032 15.3281C99.9669 15.2444 99.8543 15.1242 99.658 15.0296C100.857 15.0223 102.057 15.0187 103.256 15.015C113.855 14.9859 124.46 14.9022 135.055 14.9968C135.702 15.0005 136.349 15.0078 136.999 15.0187C142.266 15.1606 147.54 15.2916 152.81 15.3899L152.843 15.3935C154.958 15.4154 153.675 13.5957 152.901 13.5738C152.821 13.5702 152.268 13.5592 152.057 13.552C150.553 13.5083 149.048 13.4355 147.543 13.3991C144.04 13.3154 140.525 13.239 137.018 13.1989C110.562 12.4783 84.0948 11.4375 57.6315 12.3255C47.4729 12.6676 37.3179 13.1772 27.1702 13.7922C23.114 13.4865 19.0979 12.9151 15.1798 11.8852C17.5568 11.2519 19.2542 10.8661 22.2309 10.2583C30.7503 8.5114 39.2879 7.23024 47.9309 6.26578C68.477 3.98385 89.2195 4.29324 109.74 1.84753C110.107 1.80386 110.271 1.70197 110.3 1.68013C110.722 1.40717 110.74 1.04681 110.711 0.806611C110.7 0.704706 110.587 0.0496201 109.835 0.00230724C109.569 -0.01589 107.672 0.0787463 106.938 0.104222C105.528 0.155175 104.114 0.227942 102.704 0.264337C97.1792 0.409915 91.7746 0.657433 86.2501 0.93767C65.5403 1.98219 44.6924 3.39432 23.9391 3.32881C23.4375 3.32881 23.0304 3.73643 23.0268 4.23867C23.0268 4.73728 23.4339 5.14854 23.9318 5.14854C30.9211 5.17037 37.9176 5.02843 44.9142 4.78459Z" fill="#6366F1"/>
</svg>
