<svg width="103" height="15" viewBox="0 0 103 15" fill="none" xmlns="http://www.w3.org/2000/svg">
<path fill-rule="evenodd" clip-rule="evenodd" d="M27.453 8.36054C23.0279 9.6435 17.9188 10.9203 13.0039 11.2391C8.80301 11.5112 4.74535 11.0886 1.42409 9.29034C0.955912 9.03714 0.369626 9.21121 0.116431 9.67977C-0.13715 10.148 0.0373058 10.7343 0.505485 10.9878C4.12857 12.9489 8.54634 13.4619 13.1286 13.1647C18.1319 12.8405 23.3332 11.5552 27.8471 10.2537C28.3708 11.3147 29.4554 12.304 31.366 13.0338C34.3005 14.1551 38.3072 14.1412 42.5281 13.5093C48.65 12.5934 55.2354 10.4093 59.4694 8.85728C59.6431 8.79398 59.9017 8.69325 60.2182 8.56048C60.3147 8.77353 60.4228 8.9835 60.5424 9.18961C61.5807 10.9859 63.4179 12.4383 65.2899 12.957C77.1622 16.2463 91.0185 12.3051 102.3 9.09773C102.81 8.95222 103.107 8.41806 102.964 7.90588C102.818 7.3937 102.285 7.09612 101.772 7.24163C90.8062 10.3595 77.3436 14.2932 65.8032 11.097C64.3828 10.7034 63.0011 9.58715 62.2137 8.22391C62.1249 8.07184 62.0477 7.9163 61.9744 7.75843C63.5298 6.98766 65.3593 5.91313 66.3435 4.76294C67.3548 3.58381 67.6057 2.32517 66.7256 1.13639C65.9691 0.120132 64.8228 0.0336734 63.6302 0.56052C62.3449 1.12481 61.021 2.44402 60.5926 3.06312C59.7898 4.21948 59.5351 5.47389 59.6817 6.69702C59.3035 6.85681 58.9963 6.97568 58.8067 7.04516C54.6653 8.56278 48.2285 10.7049 42.2425 11.6008C38.391 12.1774 34.7324 12.2542 32.0545 11.2314C30.9124 10.7948 30.1579 10.2854 29.7483 9.69407C30.5566 9.45245 31.3359 9.21469 32.0804 8.98774C33.5529 8.53886 36.6186 7.79588 38.809 6.47162C40.5508 5.4187 41.7319 3.98637 41.6632 2.19085C41.6281 1.26839 41.0943 0.652755 40.2448 0.307699C38.9753 -0.207568 36.7799 0.0417621 35.9624 0.215448C33.483 0.741136 30.1737 2.91724 28.5364 5.36929C27.883 6.34772 27.4943 7.37131 27.453 8.36054ZM29.4898 7.75766C30.1903 7.54692 30.8673 7.34004 31.5176 7.14165C32.8921 6.72249 35.7652 6.05669 37.8104 4.82004C38.8935 4.16544 39.7777 3.38117 39.7349 2.26456C39.7314 2.17772 39.6453 2.15302 39.5693 2.11751C39.4516 2.06309 39.3169 2.02564 39.1733 1.99631C38.2018 1.79792 36.8969 1.98974 36.3627 2.10321C34.2823 2.54438 31.5149 4.38352 30.1413 6.44112C29.851 6.87572 29.6198 7.31843 29.4898 7.75766ZM61.5884 5.80852C62.4954 5.34189 63.4449 4.77759 64.1937 4.16352C64.5912 3.83737 64.927 3.50198 65.1393 3.15384C65.3169 2.86591 65.3863 2.57101 65.174 2.28616C65.0891 2.17076 64.9618 2.16846 64.8306 2.19007C64.6916 2.21323 64.5488 2.26262 64.406 2.32631C63.4642 2.74084 62.4916 3.70923 62.179 4.16352C61.8123 4.69036 61.6309 5.24771 61.5884 5.80852Z" fill="#22C55E"/>
</svg>
