<svg width="103" height="21" viewBox="0 0 103 21" fill="none" xmlns="http://www.w3.org/2000/svg">
<path fill-rule="evenodd" clip-rule="evenodd" d="M30.04 3.20008C24.8646 3.81836 19.7402 4.61918 14.6232 5.66831C12.219 6.16002 11.0449 6.43755 8.85704 7.04122C8.63583 7.10208 8.14236 7.17994 7.90413 7.2554C7.72181 7.31382 7.60513 7.3966 7.54436 7.45502C7.31828 7.67653 7.30856 7.91752 7.39364 8.1366C7.43254 8.24127 7.52733 8.43598 7.83849 8.53578C9.18521 8.97637 10.5538 9.3293 11.9346 9.60923C9.25084 9.77232 6.66193 9.9208 3.93445 10.152C2.59745 10.2665 0.760662 10.4466 0.537747 10.4807C-0.0225775 10.5634 -0.00264591 11.1282 0.00100046 11.1598C0.00610537 11.2012 0.0773316 11.7051 0.624529 11.6953C17.8879 11.43 35.123 10.7655 52.3971 10.746C52.4651 10.746 57.096 10.7606 61.0122 10.8604C59.3859 10.9724 57.3877 11.0868 55.0127 11.2134C43.957 11.8024 32.8817 12.0921 21.843 13.0001C16.4901 13.4407 16.6189 13.4406 11.3439 14.054C8.36358 14.3997 8.49484 14.3413 5.44964 14.8427C5.18103 14.8865 4.62872 14.8403 4.33871 14.8841C4.12844 14.9182 3.97626 14.9961 3.88559 15.0691C3.7356 15.1933 3.66049 15.3442 3.64032 15.5145C3.62306 15.6606 3.64008 15.8626 3.82701 16.0793C4.02513 16.3105 4.3516 16.515 4.79645 16.6635C5.30986 16.8339 6.00801 16.9434 6.80535 17.0019C9.70057 17.2161 13.9984 16.7852 14.9927 16.7755C22.4191 16.6952 29.8334 16.2181 37.2598 16.0331C37.2574 16.0744 37.2574 16.1134 37.2622 16.1523C37.2792 16.3105 37.3498 16.4931 37.5442 16.6513C37.746 16.812 38.3391 17.0091 39.134 17.16C39.873 17.3012 40.8114 17.4376 41.6913 17.5666C40.6047 17.664 39.4744 17.7832 38.7499 17.9098C38.4364 17.9658 37.6196 18.051 37.5078 18.0948C37.1383 18.2408 37.1115 18.5427 37.1139 18.6765C37.1139 18.752 37.1431 19.234 37.7338 19.2924C42.8193 19.7987 47.9971 19.4409 53.0558 20.0641C53.3889 20.1054 53.6928 19.8693 53.7341 19.5358C53.7754 19.2023 53.5396 18.898 53.2066 18.8567C50.586 18.5329 47.9339 18.4721 45.2769 18.4186C45.5662 18.2676 45.6635 18.0363 45.6853 17.8806C45.7097 17.6931 45.6805 17.4375 45.3887 17.216C45.2453 17.1065 44.905 16.9531 44.2948 16.7925C43.4902 16.5807 41.7375 16.3592 40.279 16.1255C40.7579 16.0647 41.2368 16.0087 41.7181 15.9576C45.328 15.9211 49.6161 15.9113 52.9294 15.8992C55.6156 15.8919 58.3723 15.8602 58.9654 15.8164C59.172 15.8018 59.2887 15.7483 59.3203 15.7337C59.4491 15.6655 59.5172 15.5778 59.5585 15.5097C59.6825 15.3052 59.685 15.1008 59.5707 14.8939C59.5513 14.8598 59.4224 14.6091 59.0116 14.5701C53.2625 14.0492 47.3991 14.1271 41.6476 14.7429C40.8089 14.7502 40.0092 14.7624 39.2677 14.7745C31.1679 14.9109 23.0803 15.4708 14.9805 15.5584C14.0252 15.5681 9.98499 15.9771 7.13353 15.8043C8.73307 15.5535 9.12444 15.5364 11.4849 15.2638C16.7381 14.6528 16.6092 14.6504 21.9426 14.2123C32.9692 13.3068 44.0348 13.0171 55.0759 12.428C61.5519 12.0824 65.2882 11.8073 66.3335 11.469C66.8075 11.3156 66.9825 11.0406 67.0287 10.8726C67.0871 10.673 67.0652 10.4612 66.9047 10.2519C66.861 10.1959 66.7856 10.1156 66.6544 10.0523C67.4566 10.0474 68.2588 10.045 69.061 10.0425C76.1495 10.023 83.2429 9.96705 90.329 10.0303C90.7617 10.0328 91.1944 10.0377 91.6295 10.045C95.1519 10.1399 98.6792 10.2275 102.204 10.2932L102.226 10.2957C103.641 10.3103 102.783 9.0932 102.265 9.0786C102.211 9.07616 101.842 9.06884 101.701 9.06398C100.694 9.03477 99.688 8.9861 98.6816 8.96176C96.3382 8.90577 93.9875 8.85464 91.6417 8.82787C73.9471 8.3459 56.2452 7.64975 38.5458 8.24369C31.7514 8.4725 24.9594 8.81329 18.1723 9.22467C15.4594 9.0202 12.7732 8.63804 10.1527 7.94916C11.7425 7.52562 12.8778 7.2676 14.8687 6.86109C20.5667 5.69269 26.2769 4.83581 32.0576 4.19075C45.7996 2.66452 59.6728 2.87145 73.3977 1.23569C73.6432 1.20648 73.7526 1.13833 73.7721 1.12372C74.054 0.941161 74.0662 0.700142 74.0467 0.539487C74.0395 0.47133 73.9641 0.0331874 73.4609 0.00154315C73.2835 -0.0106277 72.0145 0.052668 71.5235 0.0697072C70.5803 0.103786 69.6347 0.152455 68.6915 0.176797C64.9965 0.274164 61.3817 0.439712 57.6867 0.627143C43.8354 1.32575 29.8917 2.27023 16.0112 2.22641C15.6757 2.22641 15.4035 2.49904 15.401 2.83496C15.401 3.16844 15.6733 3.4435 16.0063 3.4435C20.681 3.45811 25.3605 3.36317 30.04 3.20008Z" fill="#EC4899"/>
</svg>
