<svg width="1538" height="1288" viewBox="0 0 1538 1288" fill="none" xmlns="http://www.w3.org/2000/svg">
<path d="M1259.48 1247.13L981.43 1175.85H1243.91L1528.3 1247.13H1259.48Z" fill="#92E3A9"/>
<path d="M268.822 1247.13L546.873 1175.85H284.428L0 1247.13H268.822Z" fill="#92E3A9"/>
<path d="M776.981 950.618C776.981 950.618 776.718 949.305 776.306 946.867" stroke="#2E353A" stroke-miterlimit="10"/>
<path d="M775.068 939.514C771.054 913.517 764.264 848.656 789.736 819.696C822.035 783.045 860.749 814.444 968.638 819.696C1076.53 824.948 1132.05 809.23 1133.17 716.721C1134.3 624.213 1071.01 618.098 1071.01 618.098H1031.02" stroke="#2E353A" stroke-miterlimit="10" stroke-dasharray="2.01 2.01"/>
<path d="M1027.23 618.248H1023.48" stroke="#2E353A" stroke-miterlimit="10"/>
<path d="M1023.48 334.083H1027.23" stroke="#2E353A" stroke-miterlimit="10"/>
<path d="M1034.74 334.083H1169.79C1169.79 334.083 1210.49 337.609 1208.8 384.576C1207.11 431.543 1139.4 475.547 1143.71 569.33C1148.03 663.114 1308.06 649.122 1329.86 743.018C1351.65 836.915 1191.54 832.226 1176.65 880.693C1171.97 891.559 1169.67 903.301 1169.9 915.131C1169.9 930.886 1169.9 968.325 1169.9 984.343" stroke="#2E353A" stroke-miterlimit="10" stroke-dasharray="2 2"/>
<path d="M1169.9 988.132V991.883" stroke="#2E353A" stroke-miterlimit="10"/>
<path d="M526.353 68.2618H522.602" stroke="#2E353A" stroke-miterlimit="10"/>
<path d="M515.136 68.2618H449C449 68.2618 268.935 66.1985 268.935 218.316C268.935 288.729 293.393 341.361 365.87 427.867C438.346 514.373 437.145 784.771 413.587 833.276C390.028 881.781 340.06 874.541 322.504 900.8C322.504 900.8 309.862 914.043 308.774 930.211C307.911 942.928 308.399 984.606 308.774 1001.71" stroke="#2E353A" stroke-miterlimit="10" stroke-dasharray="1.99 1.99"/>
<path d="M308.586 1005.65C308.586 1008.01 308.586 1009.4 308.586 1009.4" stroke="#2E353A" stroke-miterlimit="10"/>
<path d="M566.83 264.12C558.726 264.132 550.768 266.28 543.759 270.347C544.407 266.745 544.733 263.091 544.734 259.431C544.747 243.533 538.821 228.203 528.118 216.447C517.414 204.691 502.706 197.357 486.876 195.883C471.046 194.408 455.237 198.899 442.546 208.476C429.856 218.053 421.2 232.025 418.276 247.652C410.579 244.842 402.361 243.748 394.196 244.445C386.032 245.142 378.119 247.614 371.009 251.688C363.899 255.761 357.765 261.339 353.035 268.03C348.305 274.721 345.093 282.364 343.625 290.425C342.156 298.487 342.466 306.772 344.532 314.701C346.598 322.63 350.371 330.012 355.587 336.332C360.803 342.651 367.337 347.755 374.731 351.287C382.125 354.819 390.201 356.693 398.394 356.779H566.868C579.155 356.779 590.939 351.898 599.627 343.209C608.316 334.521 613.197 322.737 613.197 310.449C613.197 298.162 608.316 286.378 599.627 277.69C590.939 269.001 579.155 264.12 566.868 264.12H566.83Z" fill="white" stroke="#2E353A" stroke-miterlimit="10"/>
<path d="M1279.03 452.363C1270.39 452.368 1261.9 454.645 1254.42 458.966C1255.08 455.137 1255.42 451.259 1255.43 447.374C1255.43 430.452 1249.12 414.139 1237.72 401.63C1226.33 389.121 1210.67 381.318 1193.82 379.75C1176.97 378.182 1160.15 382.962 1146.64 393.153C1133.13 403.344 1123.91 418.212 1120.79 434.844C1112.57 431.794 1103.79 430.581 1095.05 431.291C1086.31 432.001 1077.83 434.617 1070.21 438.955C1062.59 443.293 1056.02 449.247 1050.95 456.4C1045.87 463.552 1042.43 471.728 1040.86 480.353C1039.29 488.979 1039.62 497.844 1041.85 506.325C1044.07 514.806 1048.12 522.698 1053.72 529.445C1059.32 536.192 1066.33 541.631 1074.25 545.378C1082.18 549.126 1090.83 551.091 1099.6 551.136H1279.03C1292.11 551.136 1304.66 545.939 1313.91 536.688C1323.16 527.437 1328.36 514.889 1328.36 501.806C1328.36 488.723 1323.16 476.176 1313.91 466.924C1304.66 457.673 1292.11 452.476 1279.03 452.476V452.363Z" fill="white" stroke="#2E353A" stroke-miterlimit="10"/>
<path d="M1247.14 563.703H1262.14" stroke="#2E353A" stroke-linecap="round" stroke-linejoin="round"/>
<path d="M1173.99 563.703H1226.51" stroke="#2E353A" stroke-linecap="round" stroke-linejoin="round"/>
<path d="M1124.32 382.475C1132 376.02 1141.48 372.09 1151.48 371.221" stroke="#2E353A" stroke-linecap="round" stroke-linejoin="round"/>
<path d="M1106.46 409.898C1107.82 403.966 1110.37 398.374 1113.97 393.467" stroke="#2E353A" stroke-linecap="round" stroke-linejoin="round"/>
<path d="M536.819 680.746C523.831 680.755 511.074 684.184 499.831 690.687C500.858 684.929 501.373 679.092 501.369 673.243C501.387 647.809 491.903 623.285 474.775 604.482C457.648 585.679 434.113 573.954 408.787 571.605C383.462 569.257 358.172 576.455 337.88 591.788C317.587 607.121 303.754 629.482 299.096 654.486C286.776 649.965 273.616 648.193 260.539 649.292C247.462 650.391 234.783 654.336 223.391 660.85C211.998 667.364 202.167 676.29 194.587 687.002C187.006 697.715 181.859 709.955 179.507 722.866C177.154 735.776 177.652 749.045 180.965 761.743C184.279 774.441 190.329 786.261 198.691 796.376C207.053 806.49 217.525 814.654 229.374 820.296C241.223 825.938 254.161 828.921 267.284 829.037H536.819C556.185 828.601 574.611 820.602 588.153 806.752C601.696 792.901 609.278 774.3 609.278 754.929C609.278 735.558 601.696 716.957 588.153 703.106C574.611 689.256 556.185 681.257 536.819 680.821V680.746Z" fill="white" stroke="#2E353A" stroke-miterlimit="10"/>
<path d="M198.072 821.497C201.846 824.002 205.795 826.234 209.889 828.174" stroke="#2E353A" stroke-linecap="round" stroke-linejoin="round"/>
<path d="M168.623 786.909C172.216 795.452 177.441 803.212 184.004 809.755" stroke="#2E353A" stroke-linecap="round" stroke-linejoin="round"/>
<path d="M334.921 565.579C350.503 554.857 369.19 549.582 388.078 550.574" stroke="#2E353A" stroke-linecap="round" stroke-linejoin="round"/>
<path d="M318.678 580.585C321.292 577.169 324.26 574.038 327.531 571.244" stroke="#2E353A" stroke-linecap="round" stroke-linejoin="round"/>
<path d="M1023.48 313.338H1005.66V360.455H1023.48V313.338Z" fill="#2E353A" stroke="#2E353A" stroke-miterlimit="10"/>
<path d="M1023.48 591.276H1005.66V638.393H1023.48V591.276Z" fill="#2E353A" stroke="#2E353A" stroke-miterlimit="10"/>
<path d="M544.172 40.7269H526.353V87.8439H544.172V40.7269Z" fill="#2E353A" stroke="#2E353A" stroke-miterlimit="10"/>
<path d="M544.172 454.089H526.353V501.206H544.172V454.089Z" fill="#2E353A" stroke="#2E353A" stroke-miterlimit="10"/>
<path d="M1011.52 14.6549H542.484V116.242H1011.52V14.6549Z" fill="white" stroke="#2E353A" stroke-miterlimit="10"/>
<path d="M888.284 40.5768H565.029V90.3198H888.284V40.5768Z" fill="#92E3A9" stroke="#2E353A" stroke-miterlimit="10"/>
<path d="M932.062 75.802C938.982 75.802 944.592 70.1924 944.592 63.2725C944.592 56.3526 938.982 50.743 932.062 50.743C925.142 50.743 919.533 56.3526 919.533 63.2725C919.533 70.1924 925.142 75.802 932.062 75.802Z" fill="white" stroke="#2E353A" stroke-miterlimit="10"/>
<path d="M993.697 63.2725C993.697 60.7944 992.962 58.3719 991.585 56.3115C990.208 54.251 988.252 52.6451 985.962 51.6967C983.673 50.7484 981.153 50.5003 978.723 50.9837C976.292 51.4672 974.06 52.6605 972.307 54.4128C970.555 56.1651 969.362 58.3976 968.878 60.8281C968.395 63.2586 968.643 65.7779 969.591 68.0674C970.54 70.3568 972.146 72.3137 974.206 73.6904C976.267 75.0672 978.689 75.802 981.167 75.802C984.49 75.802 987.677 74.482 990.027 72.1322C992.377 69.7825 993.697 66.5955 993.697 63.2725Z" fill="#92E3A9" stroke="#2E353A" stroke-miterlimit="10"/>
<path d="M858.948 75.802C865.868 75.802 871.477 70.1924 871.477 63.2725C871.477 56.3526 865.868 50.743 858.948 50.743C852.028 50.743 846.418 56.3526 846.418 63.2725C846.418 70.1924 852.028 75.802 858.948 75.802Z" fill="white" stroke="#2E353A" stroke-miterlimit="10"/>
<path d="M993.734 116.242H560.303V151.017H993.734V116.242Z" fill="#2E353A" stroke="#2E353A" stroke-miterlimit="10"/>
<path d="M1011.52 151.017H542.484V252.604H1011.52V151.017Z" fill="white" stroke="#2E353A" stroke-miterlimit="10"/>
<path d="M888.284 176.939H565.029V226.682H888.284V176.939Z" fill="#92E3A9" stroke="#2E353A" stroke-miterlimit="10"/>
<path d="M932.062 212.201C938.982 212.201 944.592 206.592 944.592 199.672C944.592 192.752 938.982 187.142 932.062 187.142C925.142 187.142 919.533 192.752 919.533 199.672C919.533 206.592 925.142 212.201 932.062 212.201Z" fill="#92E3A9" stroke="#2E353A" stroke-miterlimit="10"/>
<path d="M993.697 199.672C993.697 197.194 992.962 194.771 991.585 192.711C990.208 190.65 988.252 189.044 985.962 188.096C983.673 187.148 981.153 186.9 978.723 187.383C976.292 187.867 974.06 189.06 972.307 190.812C970.555 192.564 969.362 194.797 968.878 197.227C968.395 199.658 968.643 202.177 969.591 204.467C970.54 206.756 972.146 208.713 974.206 210.09C976.267 211.467 978.689 212.201 981.167 212.201C982.814 212.206 984.446 211.886 985.968 211.258C987.49 210.63 988.874 209.707 990.038 208.543C991.202 207.378 992.125 205.995 992.753 204.473C993.381 202.95 993.702 201.319 993.697 199.672Z" fill="white" stroke="#2E353A" stroke-miterlimit="10"/>
<path d="M858.948 212.201C865.868 212.201 871.477 206.592 871.477 199.672C871.477 192.752 865.868 187.142 858.948 187.142C852.028 187.142 846.418 192.752 846.418 199.672C846.418 206.592 852.028 212.201 858.948 212.201Z" fill="white" stroke="#2E353A" stroke-miterlimit="10"/>
<path d="M993.734 252.641H560.303V287.416H993.734V252.641Z" fill="#2E353A" stroke="#2E353A" stroke-miterlimit="10"/>
<path d="M1011.52 287.416H542.484V389.003H1011.52V287.416Z" fill="white" stroke="#2E353A" stroke-miterlimit="10"/>
<path d="M888.284 313.338H565.029V363.081H888.284V313.338Z" fill="#92E3A9" stroke="#2E353A" stroke-miterlimit="10"/>
<path d="M932.062 348.563C938.982 348.563 944.592 342.954 944.592 336.034C944.592 329.114 938.982 323.504 932.062 323.504C925.142 323.504 919.533 329.114 919.533 336.034C919.533 342.954 925.142 348.563 932.062 348.563Z" fill="white" stroke="#2E353A" stroke-miterlimit="10"/>
<path d="M993.697 336.034C993.697 333.556 992.962 331.133 991.585 329.073C990.208 327.012 988.252 325.406 985.962 324.458C983.673 323.51 981.153 323.261 978.723 323.745C976.292 324.228 974.06 325.422 972.307 327.174C970.555 328.926 969.362 331.159 968.878 333.589C968.395 336.02 968.643 338.539 969.591 340.829C970.54 343.118 972.146 345.075 974.206 346.452C976.267 347.828 978.689 348.563 981.167 348.563C984.49 348.563 987.677 347.243 990.027 344.893C992.377 342.544 993.697 339.357 993.697 336.034Z" fill="#92E3A9" stroke="#2E353A" stroke-miterlimit="10"/>
<path d="M858.948 348.563C865.868 348.563 871.477 342.954 871.477 336.034C871.477 329.114 865.868 323.504 858.948 323.504C852.028 323.504 846.418 329.114 846.418 336.034C846.418 342.954 852.028 348.563 858.948 348.563Z" fill="white" stroke="#2E353A" stroke-miterlimit="10"/>
<path d="M993.734 389.003H560.303V423.778H993.734V389.003Z" fill="#2E353A" stroke="#2E353A" stroke-miterlimit="10"/>
<path d="M1011.52 423.778H542.484V525.365H1011.52V423.778Z" fill="white" stroke="#2E353A" stroke-miterlimit="10"/>
<path d="M888.284 449.7H565.029V499.443H888.284V449.7Z" fill="#92E3A9" stroke="#2E353A" stroke-miterlimit="10"/>
<path d="M932.062 484.962C938.982 484.962 944.592 479.353 944.592 472.433C944.592 465.513 938.982 459.903 932.062 459.903C925.142 459.903 919.533 465.513 919.533 472.433C919.533 479.353 925.142 484.962 932.062 484.962Z" fill="#92E3A9" stroke="#2E353A" stroke-miterlimit="10"/>
<path d="M993.697 472.433C993.697 469.955 992.962 467.532 991.585 465.472C990.208 463.411 988.252 461.806 985.962 460.857C983.673 459.909 981.153 459.661 978.723 460.144C976.292 460.628 974.06 461.821 972.307 463.573C970.555 465.326 969.362 467.558 968.878 469.989C968.395 472.419 968.643 474.938 969.591 477.228C970.54 479.517 972.146 481.474 974.206 482.851C976.267 484.228 978.689 484.962 981.167 484.962C982.814 484.967 984.446 484.647 985.968 484.019C987.49 483.391 988.874 482.468 990.038 481.304C991.202 480.139 992.125 478.756 992.753 477.234C993.381 475.711 993.702 474.08 993.697 472.433Z" fill="white" stroke="#2E353A" stroke-miterlimit="10"/>
<path d="M858.948 484.962C865.868 484.962 871.477 479.353 871.477 472.433C871.477 465.513 865.868 459.903 858.948 459.903C852.028 459.903 846.418 465.513 846.418 472.433C846.418 479.353 852.028 484.962 858.948 484.962Z" fill="white" stroke="#2E353A" stroke-miterlimit="10"/>
<path d="M993.734 525.402H560.303V560.177H993.734V525.402Z" fill="#2E353A" stroke="#2E353A" stroke-miterlimit="10"/>
<path d="M1011.52 560.177H542.484V661.764H1011.52V560.177Z" fill="white" stroke="#2E353A" stroke-miterlimit="10"/>
<path d="M888.284 586.099H565.029V635.842H888.284V586.099Z" fill="#92E3A9" stroke="#2E353A" stroke-miterlimit="10"/>
<path d="M932.062 621.324C938.982 621.324 944.592 615.715 944.592 608.795C944.592 601.875 938.982 596.265 932.062 596.265C925.142 596.265 919.533 601.875 919.533 608.795C919.533 615.715 925.142 621.324 932.062 621.324Z" fill="white" stroke="#2E353A" stroke-miterlimit="10"/>
<path d="M993.697 608.795C993.697 606.317 992.962 603.894 991.585 601.834C990.208 599.773 988.252 598.168 985.962 597.219C983.673 596.271 981.153 596.023 978.723 596.506C976.292 596.99 974.06 598.183 972.307 599.935C970.555 601.688 969.362 603.92 968.878 606.351C968.395 608.781 968.643 611.3 969.591 613.59C970.54 615.879 972.146 617.836 974.206 619.213C976.267 620.59 978.689 621.324 981.167 621.324C984.49 621.324 987.677 620.004 990.027 617.655C992.377 615.305 993.697 612.118 993.697 608.795Z" fill="#92E3A9" stroke="#2E353A" stroke-miterlimit="10"/>
<path d="M858.948 621.324C865.868 621.324 871.477 615.715 871.477 608.795C871.477 601.875 865.868 596.265 858.948 596.265C852.028 596.265 846.418 601.875 846.418 608.795C846.418 615.715 852.028 621.324 858.948 621.324Z" fill="white" stroke="#2E353A" stroke-miterlimit="10"/>
<path d="M808.23 1H834.489" stroke="#2E353A" stroke-linecap="round" stroke-linejoin="round"/>
<path d="M626.289 1H778.219" stroke="#2E353A" stroke-linecap="round" stroke-linejoin="round"/>
<path d="M523.127 618.098V636.855" stroke="#2E353A" stroke-linecap="round" stroke-linejoin="round"/>
<path d="M523.127 559.952V599.341" stroke="#2E353A" stroke-linecap="round" stroke-linejoin="round"/>
<path d="M1214.91 213.289L1188.65 161.333C1188.51 160.97 1188.29 160.642 1188.01 160.368C1187.73 160.094 1187.39 159.881 1187.03 159.741C1186.66 159.602 1186.27 159.54 1185.88 159.558C1185.49 159.577 1185.1 159.676 1184.75 159.849C1184.4 160.022 1184.09 160.265 1183.84 160.564C1183.58 160.863 1183.4 161.211 1183.28 161.586C1183.17 161.961 1183.14 162.356 1183.18 162.744C1183.23 163.133 1183.35 163.508 1183.55 163.846L1208.65 216.365C1208.13 216.896 1207.78 217.559 1207.62 218.282C1207.46 219.004 1207.5 219.757 1207.75 220.454L1234.31 270.235C1235.02 271.66 1237.27 271.96 1239.41 270.91C1241.55 269.86 1242.67 267.872 1241.96 266.484L1218.7 215.052C1218.32 214.416 1217.75 213.908 1217.08 213.594C1216.4 213.28 1215.65 213.174 1214.91 213.289Z" fill="#2E353A"/>
<path d="M1360.32 213.289L1386.76 161.333C1387.09 160.662 1387.66 160.147 1388.37 159.901C1389.07 159.655 1389.84 159.698 1390.52 160.02C1391.17 160.358 1391.68 160.936 1391.92 161.634C1392.16 162.332 1392.13 163.097 1391.83 163.771L1366.69 216.29C1367.22 216.814 1367.58 217.482 1367.73 218.21C1367.87 218.937 1367.8 219.693 1367.52 220.379L1340.96 270.16C1340.25 271.585 1337.96 271.885 1335.86 270.835C1333.76 269.785 1332.59 267.797 1333.27 266.409L1356.57 214.977C1356.96 214.361 1357.52 213.873 1358.19 213.573C1358.86 213.273 1359.6 213.175 1360.32 213.289Z" fill="#2E353A"/>
<path d="M1370.37 272.486H1205.42L1217.8 251.478H1357.99L1370.37 272.486Z" fill="white" stroke="#2E353A" stroke-linecap="round" stroke-linejoin="round"/>
<path d="M1370.33 272.486H1205.42V293.493H1370.33V272.486Z" fill="white" stroke="#2E353A" stroke-linecap="round" stroke-linejoin="round"/>
<path d="M1285.03 287.641H1221.63C1220.4 287.631 1219.23 287.137 1218.36 286.266C1217.5 285.394 1217.02 284.217 1217.02 282.99C1217.02 281.766 1217.5 280.592 1218.37 279.727C1219.23 278.862 1220.41 278.375 1221.63 278.375H1285.03C1286.25 278.375 1287.42 278.862 1288.29 279.727C1289.16 280.592 1289.64 281.766 1289.64 282.99C1289.64 284.217 1289.16 285.394 1288.29 286.266C1287.43 287.137 1286.25 287.631 1285.03 287.641Z" fill="white" stroke="#2E353A" stroke-miterlimit="10"/>
<path d="M1323.4 286.478C1325.64 286.478 1327.45 284.664 1327.45 282.427C1327.45 280.189 1325.64 278.375 1323.4 278.375C1321.17 278.375 1319.35 280.189 1319.35 282.427C1319.35 284.664 1321.17 286.478 1323.4 286.478Z" fill="white" stroke="#2E353A" stroke-miterlimit="10"/>
<path d="M1344.26 282.427C1344.26 281.618 1344.02 280.827 1343.57 280.155C1343.12 279.483 1342.48 278.959 1341.74 278.649C1340.99 278.34 1340.17 278.259 1339.37 278.416C1338.58 278.574 1337.85 278.964 1337.28 279.535C1336.71 280.107 1336.32 280.836 1336.16 281.629C1336 282.422 1336.09 283.244 1336.39 283.992C1336.7 284.739 1337.23 285.377 1337.9 285.827C1338.57 286.276 1339.36 286.516 1340.17 286.516C1340.71 286.521 1341.24 286.418 1341.74 286.215C1342.24 286.011 1342.69 285.71 1343.07 285.329C1343.46 284.949 1343.76 284.496 1343.96 283.997C1344.16 283.499 1344.27 282.965 1344.26 282.427Z" fill="white" stroke="#2E353A" stroke-miterlimit="10"/>
<path d="M1356.98 286.478C1359.22 286.478 1361.03 284.664 1361.03 282.427C1361.03 280.189 1359.22 278.375 1356.98 278.375C1354.74 278.375 1352.93 280.189 1352.93 282.427C1352.93 284.664 1354.74 286.478 1356.98 286.478Z" fill="white" stroke="#2E353A" stroke-miterlimit="10"/>
<path d="M1427.99 154.355C1428.52 156.935 1428.79 159.562 1428.78 162.196C1428.78 162.533 1428.78 162.834 1428.78 163.171" stroke="#2E353A" stroke-width="0.5" stroke-linecap="round" stroke-linejoin="round"/>
<path d="M1368.42 129.597C1373.26 126.409 1378.75 124.344 1384.5 123.55C1390.24 122.756 1396.09 123.255 1401.61 125.009C1407.14 126.763 1412.2 129.729 1416.43 133.69C1420.67 137.651 1423.96 142.507 1426.08 147.903" stroke="#2E353A" stroke-width="0.5" stroke-linecap="round" stroke-linejoin="round"/>
<path d="M1379.3 135.261C1377.21 136.078 1375.22 137.135 1373.37 138.412" stroke="#2E353A" stroke-width="0.5" stroke-linecap="round" stroke-linejoin="round"/>
<path d="M1418.65 162.909C1418.67 162.671 1418.67 162.433 1418.65 162.196C1418.65 154.525 1415.6 147.168 1410.18 141.744C1404.76 136.32 1397.4 133.273 1389.73 133.273C1388.22 133.264 1386.71 133.39 1385.23 133.648" stroke="#2E353A" stroke-width="0.5" stroke-linecap="round" stroke-linejoin="round"/>
<path d="M1409.27 162.683V162.196C1409.27 157.022 1407.22 152.061 1403.56 148.402C1399.9 144.744 1394.94 142.689 1389.77 142.689C1385.5 142.685 1381.36 144.097 1377.99 146.703" stroke="#2E353A" stroke-width="0.5" stroke-linecap="round" stroke-linejoin="round"/>
<path d="M1385.68 152.255C1384.43 152.773 1383.3 153.524 1382.34 154.468" stroke="#2E353A" stroke-width="0.5" stroke-linecap="round" stroke-linejoin="round"/>
<path d="M1400.53 162.458V162.196C1400.53 159.34 1399.4 156.602 1397.38 154.583C1395.36 152.564 1392.62 151.429 1389.77 151.429" stroke="#2E353A" stroke-width="0.5" stroke-linecap="round" stroke-linejoin="round"/>
<path d="M1147.43 156.681C1147.16 158.532 1147.02 160.4 1147.01 162.271C1147.01 162.608 1147.01 162.909 1147.01 163.246" stroke="#2E353A" stroke-width="0.5" stroke-linecap="round" stroke-linejoin="round"/>
<path d="M1193.79 123.969C1191.24 123.44 1188.64 123.176 1186.03 123.182C1177.86 123.178 1169.89 125.74 1163.26 130.505C1156.62 135.27 1151.65 141.999 1149.04 149.741" stroke="#2E353A" stroke-width="0.5" stroke-linecap="round" stroke-linejoin="round"/>
<path d="M1207.37 129.596C1204.9 127.963 1202.24 126.617 1199.46 125.583" stroke="#2E353A" stroke-width="0.5" stroke-linecap="round" stroke-linejoin="round"/>
<path d="M1183.7 133.385C1184.45 133.385 1185.24 133.385 1186.03 133.385C1191.9 133.391 1197.63 135.184 1202.46 138.525" stroke="#2E353A" stroke-width="0.5" stroke-linecap="round" stroke-linejoin="round"/>
<path d="M1157.14 162.909C1157.14 162.683 1157.14 162.458 1157.14 162.196C1157.15 156.511 1158.82 150.953 1161.96 146.216C1165.11 141.479 1169.58 137.773 1174.81 135.561" stroke="#2E353A" stroke-width="0.5" stroke-linecap="round" stroke-linejoin="round"/>
<path d="M1166.48 162.683V162.196C1166.48 157.022 1168.54 152.061 1172.2 148.402C1175.86 144.744 1180.82 142.689 1185.99 142.689C1190.25 142.685 1194.4 144.097 1197.77 146.703" stroke="#2E353A" stroke-width="0.5" stroke-linecap="round" stroke-linejoin="round"/>
<path d="M1175.3 162.458C1175.28 162.372 1175.28 162.282 1175.3 162.196C1175.29 160.079 1175.9 158.006 1177.07 156.238C1178.23 154.469 1179.89 153.085 1181.84 152.259C1183.79 151.433 1185.94 151.202 1188.02 151.595C1190.1 151.988 1192.02 152.988 1193.53 154.468" stroke="#2E353A" stroke-width="0.5" stroke-linecap="round" stroke-linejoin="round"/>
<path d="M696.177 848.507L669.917 796.55C669.593 795.879 669.016 795.364 668.313 795.118C667.61 794.872 666.838 794.915 666.166 795.237C665.509 795.576 665.006 796.153 664.762 796.851C664.518 797.549 664.55 798.314 664.853 798.989L689.987 851.508C689.468 852.028 689.113 852.689 688.966 853.409C688.819 854.13 688.887 854.877 689.162 855.559L715.721 905.377C716.434 906.765 718.723 907.065 720.823 906.052C722.924 905.039 724.087 903.014 723.412 901.588L700.116 850.157C699.684 849.536 699.084 849.05 698.387 848.758C697.689 848.466 696.922 848.379 696.177 848.507Z" fill="#2E353A"/>
<path d="M841.617 848.507L867.876 796.55C868.024 796.187 868.244 795.859 868.524 795.585C868.805 795.311 869.138 795.098 869.504 794.959C869.87 794.819 870.261 794.757 870.652 794.776C871.043 794.794 871.426 794.893 871.778 795.066C872.129 795.239 872.441 795.483 872.694 795.781C872.947 796.08 873.136 796.428 873.248 796.803C873.361 797.178 873.395 797.573 873.349 797.962C873.302 798.35 873.176 798.726 872.978 799.064L847.882 851.583C848.395 852.107 848.743 852.77 848.883 853.49C849.023 854.21 848.949 854.956 848.669 855.634L822.11 905.452C821.397 906.84 819.146 907.14 817.008 906.127C814.87 905.114 813.744 903.089 814.42 901.663L837.715 850.232C838.135 849.604 838.724 849.107 839.415 848.802C840.106 848.496 840.87 848.394 841.617 848.507Z" fill="#2E353A"/>
<path d="M851.633 907.703H686.723L699.065 886.733H839.253L851.633 907.703Z" fill="white" stroke="#2E353A" stroke-linecap="round" stroke-linejoin="round"/>
<path d="M851.633 907.703H686.723V928.711H851.633V907.703Z" fill="white" stroke="#2E353A" stroke-linecap="round" stroke-linejoin="round"/>
<path d="M766.327 913.593H702.891C700.343 913.593 698.277 915.658 698.277 918.207V918.244C698.277 920.793 700.343 922.858 702.891 922.858H766.327C768.875 922.858 770.941 920.793 770.941 918.244V918.207C770.941 915.658 768.875 913.593 766.327 913.593Z" fill="white" stroke="#2E353A" stroke-miterlimit="10"/>
<path d="M804.666 921.733C806.903 921.733 808.717 919.919 808.717 917.682C808.717 915.444 806.903 913.63 804.666 913.63C802.428 913.63 800.614 915.444 800.614 917.682C800.614 919.919 802.428 921.733 804.666 921.733Z" fill="white" stroke="#2E353A" stroke-miterlimit="10"/>
<path d="M825.523 917.681C825.531 916.87 825.297 916.074 824.85 915.396C824.404 914.718 823.765 914.188 823.017 913.874C822.268 913.559 821.443 913.475 820.646 913.632C819.85 913.789 819.117 914.179 818.543 914.753C817.969 915.327 817.579 916.059 817.422 916.856C817.266 917.652 817.35 918.477 817.664 919.226C817.978 919.975 818.508 920.613 819.186 921.059C819.864 921.506 820.66 921.74 821.472 921.733C822.547 921.733 823.577 921.306 824.337 920.546C825.097 919.787 825.523 918.756 825.523 917.681Z" fill="white" stroke="#2E353A" stroke-miterlimit="10"/>
<path d="M838.241 921.733C840.478 921.733 842.292 919.919 842.292 917.682C842.292 915.444 840.478 913.63 838.241 913.63C836.003 913.63 834.189 915.444 834.189 917.682C834.189 919.919 836.003 921.733 838.241 921.733Z" fill="white" stroke="#2E353A" stroke-miterlimit="10"/>
<path d="M890.535 763.613C896.466 767.034 901.394 771.953 904.825 777.879C908.255 783.805 910.067 790.528 910.079 797.375C910.079 797.713 910.079 798.013 910.079 798.351" stroke="#2E353A" stroke-width="0.5" stroke-linecap="round" stroke-linejoin="round"/>
<path d="M849.682 764.814C856.035 760.647 863.468 758.431 871.065 758.436C875.367 758.419 879.641 759.13 883.707 760.537" stroke="#2E353A" stroke-width="0.5" stroke-linecap="round" stroke-linejoin="round"/>
<path d="M866.001 768.94C861.962 769.698 858.128 771.295 854.747 773.629" stroke="#2E353A" stroke-width="0.5" stroke-linecap="round" stroke-linejoin="round"/>
<path d="M900.138 798.163C900.138 797.938 900.138 797.713 900.138 797.451C900.127 790.277 897.455 783.363 892.638 778.048C887.821 772.732 881.203 769.393 874.066 768.678" stroke="#2E353A" stroke-width="0.5" stroke-linecap="round" stroke-linejoin="round"/>
<path d="M885.133 783.871C883.322 781.988 881.149 780.492 878.744 779.474C876.339 778.455 873.752 777.934 871.14 777.943C866.873 777.946 862.724 779.342 859.323 781.92" stroke="#2E353A" stroke-width="0.5" stroke-linecap="round" stroke-linejoin="round"/>
<path d="M890.535 797.901C890.535 797.901 890.535 797.601 890.535 797.413C890.519 794.836 889.996 792.286 888.997 789.91" stroke="#2E353A" stroke-width="0.5" stroke-linecap="round" stroke-linejoin="round"/>
<path d="M868.439 786.909C866.618 787.373 864.95 788.304 863.6 789.61" stroke="#2E353A" stroke-width="0.5" stroke-linecap="round" stroke-linejoin="round"/>
<path d="M881.794 797.676C881.794 797.676 881.794 797.676 881.794 797.413C881.827 795.032 881.067 792.708 879.634 790.806C878.201 788.904 876.176 787.533 873.878 786.909" stroke="#2E353A" stroke-width="0.5" stroke-linecap="round" stroke-linejoin="round"/>
<path d="M628.84 790.886C628.462 793.041 628.274 795.225 628.277 797.413C628.277 797.751 628.277 798.051 628.277 798.388" stroke="#2E353A" stroke-width="0.5" stroke-linecap="round" stroke-linejoin="round"/>
<path d="M651.911 761.55C647.113 763.631 642.778 766.647 639.159 770.421C635.539 774.196 632.707 778.653 630.828 783.533" stroke="#2E353A" stroke-width="0.5" stroke-linecap="round" stroke-linejoin="round"/>
<path d="M688.637 764.814C682.297 760.649 674.877 758.432 667.291 758.437C664.658 758.429 662.031 758.693 659.451 759.224" stroke="#2E353A" stroke-width="0.5" stroke-linecap="round" stroke-linejoin="round"/>
<path d="M645.458 778.469C650.129 773.104 656.611 769.645 663.668 768.753C670.725 767.86 677.863 769.596 683.722 773.629" stroke="#2E353A" stroke-width="0.5" stroke-linecap="round" stroke-linejoin="round"/>
<path d="M638.406 798.163C638.406 797.938 638.406 797.713 638.406 797.45C638.408 793.17 639.356 788.943 641.182 785.071" stroke="#2E353A" stroke-width="0.5" stroke-linecap="round" stroke-linejoin="round"/>
<path d="M653.336 783.796C656.661 780.403 661.111 778.341 665.849 777.995C670.587 777.65 675.288 779.045 679.07 781.92" stroke="#2E353A" stroke-width="0.5" stroke-linecap="round" stroke-linejoin="round"/>
<path d="M647.822 797.901C647.822 797.901 647.822 797.601 647.822 797.413C647.814 794.503 648.468 791.63 649.735 789.01" stroke="#2E353A" stroke-width="0.5" stroke-linecap="round" stroke-linejoin="round"/>
<path d="M660.239 789.273C662.281 787.533 664.895 786.612 667.577 786.689C670.258 786.765 672.816 787.833 674.757 789.685" stroke="#2E353A" stroke-width="0.5" stroke-linecap="round" stroke-linejoin="round"/>
<path d="M656.563 797.676C656.563 797.676 656.563 797.676 656.563 797.413C656.562 795.645 657.001 793.905 657.838 792.349" stroke="#2E353A" stroke-width="0.5" stroke-linecap="round" stroke-linejoin="round"/>
<path d="M87.2941 532.155L61.0346 480.198C60.8872 479.835 60.6666 479.507 60.3866 479.233C60.1066 478.959 59.7732 478.746 59.4071 478.607C59.0411 478.468 58.6503 478.405 58.2591 478.424C57.8679 478.442 57.4846 478.541 57.1333 478.714C56.782 478.887 56.4701 479.131 56.2171 479.43C55.9641 479.729 55.7753 480.076 55.6627 480.451C55.5501 480.827 55.5159 481.221 55.5624 481.61C55.6088 481.999 55.7349 482.374 55.9328 482.712L81.0293 535.231C80.5074 535.757 80.143 536.419 79.9773 537.141C79.8116 537.864 79.8512 538.618 80.0915 539.32L106.651 589.138C107.364 590.526 109.615 590.826 111.753 589.775C113.891 588.725 115.017 586.774 114.304 585.349L91.0455 533.918C90.6428 533.307 90.0795 532.82 89.4177 532.509C88.7559 532.198 88.0211 532.075 87.2941 532.155Z" fill="#2E353A"/>
<path d="M232.697 532.155L258.956 480.198C259.28 479.527 259.857 479.012 260.561 478.766C261.264 478.52 262.036 478.563 262.708 478.885C263.365 479.224 263.868 479.801 264.112 480.499C264.356 481.197 264.324 481.962 264.021 482.637L238.887 535.156C239.46 535.663 239.865 536.334 240.046 537.079C240.227 537.823 240.176 538.605 239.899 539.32L213.34 589.138C212.627 590.526 210.339 590.826 208.238 589.776C206.137 588.725 204.974 586.774 205.65 585.349L228.945 533.918C229.345 533.304 229.908 532.814 230.57 532.503C231.233 532.191 231.969 532.071 232.697 532.155Z" fill="#2E353A"/>
<path d="M242.75 591.351H77.8406L90.1825 570.344H230.371L242.75 591.351Z" fill="white" stroke="#2E353A" stroke-linecap="round" stroke-linejoin="round"/>
<path d="M242.713 591.351H77.8032V612.359H242.713V591.351Z" fill="white" stroke="#2E353A" stroke-linecap="round" stroke-linejoin="round"/>
<path d="M157.369 606.507H94.009C92.7818 606.497 91.6082 606.002 90.7439 605.131C89.8797 604.26 89.3947 603.082 89.3948 601.855C89.3948 600.631 89.8809 599.458 90.7462 598.592C91.6116 597.727 92.7852 597.241 94.009 597.241H157.369C158.593 597.241 159.767 597.727 160.632 598.592C161.497 599.458 161.984 600.631 161.984 601.855C161.984 603.082 161.499 604.26 160.634 605.131C159.77 606.002 158.597 606.497 157.369 606.507Z" fill="white" stroke="#2E353A" stroke-miterlimit="10"/>
<path d="M195.783 605.344C198.021 605.344 199.835 603.53 199.835 601.292C199.835 599.055 198.021 597.241 195.783 597.241C193.546 597.241 191.732 599.055 191.732 601.292C191.732 603.53 193.546 605.344 195.783 605.344Z" fill="white" stroke="#2E353A" stroke-miterlimit="10"/>
<path d="M212.552 605.344C214.79 605.344 216.603 603.53 216.603 601.292C216.603 599.055 214.79 597.241 212.552 597.241C210.314 597.241 208.5 599.055 208.5 601.292C208.5 603.53 210.314 605.344 212.552 605.344Z" fill="white" stroke="#2E353A" stroke-miterlimit="10"/>
<path d="M233.409 601.292C233.409 600.482 233.169 599.69 232.718 599.017C232.267 598.343 231.626 597.819 230.876 597.511C230.127 597.203 229.303 597.124 228.509 597.285C227.715 597.446 226.986 597.839 226.416 598.414C225.845 598.99 225.459 599.722 225.305 600.518C225.152 601.313 225.238 602.137 225.554 602.883C225.869 603.63 226.399 604.266 227.076 604.71C227.753 605.155 228.548 605.389 229.358 605.381C229.893 605.381 230.423 605.275 230.917 605.069C231.411 604.863 231.859 604.561 232.236 604.181C232.613 603.801 232.91 603.35 233.112 602.854C233.313 602.358 233.414 601.827 233.409 601.292Z" fill="white" stroke="#2E353A" stroke-miterlimit="10"/>
<path d="M299.021 468.269C300.44 472.384 301.163 476.708 301.159 481.061C301.159 481.399 301.159 481.699 301.159 482.036" stroke="#2E353A" stroke-width="0.5" stroke-linecap="round" stroke-linejoin="round"/>
<path d="M269.91 442.797C275.88 444.004 281.487 446.584 286.287 450.335C291.086 454.086 294.945 458.903 297.558 464.405" stroke="#2E353A" stroke-width="0.5" stroke-linecap="round" stroke-linejoin="round"/>
<path d="M240.8 448.462C246.006 445.028 251.965 442.905 258.169 442.272" stroke="#2E353A" stroke-width="0.5" stroke-linecap="round" stroke-linejoin="round"/>
<path d="M283.903 462.004C279.236 456.665 272.766 453.232 265.729 452.36C258.692 451.488 251.58 453.239 245.751 457.278" stroke="#2E353A" stroke-width="0.5" stroke-linecap="round" stroke-linejoin="round"/>
<path d="M291.03 481.774C291.05 481.537 291.05 481.298 291.03 481.061C291.036 476.428 289.929 471.861 287.804 467.744" stroke="#2E353A" stroke-width="0.5" stroke-linecap="round" stroke-linejoin="round"/>
<path d="M258.131 462.004C255.293 462.655 252.639 463.937 250.366 465.756" stroke="#2E353A" stroke-width="0.5" stroke-linecap="round" stroke-linejoin="round"/>
<path d="M281.652 481.549V481.061C281.654 476.626 280.141 472.323 277.365 468.864C274.589 465.406 270.714 462.999 266.384 462.042" stroke="#2E353A" stroke-width="0.5" stroke-linecap="round" stroke-linejoin="round"/>
<path d="M270.623 474.421C269.699 473.233 268.534 472.254 267.206 471.547C265.877 470.84 264.414 470.422 262.913 470.319C261.412 470.216 259.906 470.432 258.493 470.951C257.081 471.47 255.794 472.282 254.717 473.333" stroke="#2E353A" stroke-width="0.5" stroke-linecap="round" stroke-linejoin="round"/>
<path d="M272.911 481.324V481.061C272.917 480.007 272.765 478.957 272.461 477.948" stroke="#2E353A" stroke-width="0.5" stroke-linecap="round" stroke-linejoin="round"/>
<path d="M51.5812 442.647C42.5591 444.251 34.3895 448.979 28.5043 456.003C22.6191 463.026 19.3941 471.898 19.3945 481.061C19.3945 481.399 19.3945 481.699 19.3945 482.036" stroke="#2E353A" stroke-width="0.5" stroke-linecap="round" stroke-linejoin="round"/>
<path d="M79.7538 448.462C74.1463 444.786 67.6867 442.615 60.9971 442.16" stroke="#2E353A" stroke-width="0.5" stroke-linecap="round" stroke-linejoin="round"/>
<path d="M64.7859 453.038C68.3708 453.816 71.78 455.254 74.8395 457.278" stroke="#2E353A" stroke-width="0.5" stroke-linecap="round" stroke-linejoin="round"/>
<path d="M29.5232 481.774C29.5232 481.549 29.5232 481.324 29.5232 481.061C29.5232 473.39 32.5704 466.034 37.9945 460.609C43.4186 455.185 50.7753 452.138 58.4462 452.138" stroke="#2E353A" stroke-width="0.5" stroke-linecap="round" stroke-linejoin="round"/>
<path d="M43.3657 468.682C46.5555 464.779 51.1393 462.272 56.146 461.69C61.1527 461.109 66.189 462.5 70.1879 465.568" stroke="#2E353A" stroke-width="0.5" stroke-linecap="round" stroke-linejoin="round"/>
<path d="M38.9016 481.549V481.061C38.9003 478.482 39.4236 475.929 40.4397 473.558" stroke="#2E353A" stroke-width="0.5" stroke-linecap="round" stroke-linejoin="round"/>
<path d="M60.3218 470.482C62.4126 470.866 64.3439 471.858 65.8738 473.333" stroke="#2E353A" stroke-width="0.5" stroke-linecap="round" stroke-linejoin="round"/>
<path d="M47.6797 481.324C47.6797 481.324 47.6797 481.324 47.6797 481.061C47.6883 478.514 48.5964 476.052 50.2437 474.11C51.891 472.167 54.1716 470.869 56.6829 470.445" stroke="#2E353A" stroke-width="0.5" stroke-linecap="round" stroke-linejoin="round"/>
<path d="M945.379 950.619H611.096V1179.64H945.379V950.619Z" fill="#2E353A" stroke="#2E353A" stroke-miterlimit="10"/>
<path d="M995.535 1280.89H560.978L611.096 1179.64H945.379L995.535 1280.89Z" fill="white" stroke="#2E353A" stroke-linecap="round" stroke-linejoin="round"/>
<path d="M925.122 968.738H631.354V1161.52H925.122V968.738Z" fill="white" stroke="#2E353A" stroke-miterlimit="10"/>
<path d="M822.26 1046.62L778.332 994.66L734.403 1046.62H752.785V1127.98H803.878V1046.62H822.26Z" fill="#92E3A9"/>
<path d="M764.301 1211.71L764.864 1199.37H747.233L746.032 1211.71H764.301Z" fill="white" stroke="#2E353A" stroke-miterlimit="10"/>
<path d="M800.802 1211.71L800.202 1199.37H782.533L782.57 1211.71H800.802Z" fill="white" stroke="#2E353A" stroke-miterlimit="10"/>
<path d="M895.861 1224.88H914.768L910.304 1211.71H892.072L895.861 1224.88Z" fill="white" stroke="#2E353A" stroke-miterlimit="10"/>
<path d="M746.032 1211.71L747.233 1199.37H729.564L727.801 1211.71H746.032Z" fill="white" stroke="#2E353A" stroke-miterlimit="10"/>
<path d="M709.531 1211.71L711.895 1199.37H694.226L691.3 1211.71H709.531Z" fill="white" stroke="#2E353A" stroke-miterlimit="10"/>
<path d="M873.803 1211.71L870.84 1199.37H853.171L855.572 1211.71H873.803Z" fill="white" stroke="#2E353A" stroke-miterlimit="10"/>
<path d="M892.073 1211.71L888.509 1199.37H870.84L873.803 1211.71H892.073Z" fill="white" stroke="#2E353A" stroke-miterlimit="10"/>
<path d="M691.3 1211.71L694.226 1199.37H676.557L673.031 1211.71H691.3Z" fill="white" stroke="#2E353A" stroke-miterlimit="10"/>
<path d="M819.071 1211.71L817.871 1199.37H800.202L800.802 1211.71H819.071Z" fill="white" stroke="#2E353A" stroke-miterlimit="10"/>
<path d="M910.304 1211.71L906.178 1199.37H888.509L892.073 1211.71H910.304Z" fill="white" stroke="#2E353A" stroke-miterlimit="10"/>
<path d="M855.572 1211.71L853.171 1199.37H835.54L837.303 1211.71H855.572Z" fill="white" stroke="#2E353A" stroke-miterlimit="10"/>
<path d="M837.303 1211.71L835.539 1199.37H817.871L819.071 1211.71H837.303Z" fill="white" stroke="#2E353A" stroke-miterlimit="10"/>
<path d="M782.57 1211.71L782.533 1199.37H764.864L764.301 1211.71H782.57Z" fill="white" stroke="#2E353A" stroke-miterlimit="10"/>
<path d="M654.799 1211.71H636.53L631.503 1224.88H650.373L654.799 1211.71Z" fill="white" stroke="#2E353A" stroke-miterlimit="10"/>
<path d="M658.888 1199.37H641.257L636.53 1211.71H654.799L658.888 1199.37Z" fill="white" stroke="#2E353A" stroke-miterlimit="10"/>
<path d="M673.031 1211.71L676.557 1199.37H658.888L654.799 1211.71H673.031Z" fill="white" stroke="#2E353A" stroke-miterlimit="10"/>
<path d="M626.101 1239.02L620.287 1254.22H640.581L645.646 1239.02H626.101Z" fill="white" stroke="#2E353A" stroke-miterlimit="10"/>
<path d="M650.373 1224.88H631.504L626.102 1239.02H645.646L650.373 1224.88Z" fill="white" stroke="#2E353A" stroke-miterlimit="10"/>
<path d="M645.646 1239.02L640.582 1254.22H660.876L665.228 1239.02H645.646Z" fill="white" stroke="#2E353A" stroke-miterlimit="10"/>
<path d="M727.8 1211.71L729.563 1199.37H711.895L709.531 1211.71H727.8Z" fill="white" stroke="#2E353A" stroke-miterlimit="10"/>
<path d="M725.925 1224.88L727.801 1211.71H709.531L707.018 1224.88H725.925Z" fill="white" stroke="#2E353A" stroke-miterlimit="10"/>
<path d="M707.018 1224.88L709.531 1211.71H691.3L688.148 1224.88H707.018Z" fill="white" stroke="#2E353A" stroke-miterlimit="10"/>
<path d="M744.794 1224.88L746.032 1211.71H727.8L725.925 1224.88H744.794Z" fill="white" stroke="#2E353A" stroke-miterlimit="10"/>
<path d="M673.031 1211.71H654.799L650.373 1224.88H669.279L673.031 1211.71Z" fill="white" stroke="#2E353A" stroke-miterlimit="10"/>
<path d="M899.95 1239.02H919.495L914.768 1224.88H895.861L899.95 1239.02Z" fill="white" stroke="#2E353A" stroke-miterlimit="10"/>
<path d="M688.149 1224.88L691.3 1211.71H673.031L669.279 1224.88H688.149Z" fill="white" stroke="#2E353A" stroke-miterlimit="10"/>
<path d="M650.373 1224.88L645.646 1239.02H665.228L669.28 1224.88H650.373Z" fill="white" stroke="#2E353A" stroke-miterlimit="10"/>
<path d="M858.085 1224.88L855.572 1211.71H837.303L839.216 1224.88H858.085Z" fill="white" stroke="#2E353A" stroke-miterlimit="10"/>
<path d="M839.216 1224.88L837.303 1211.71H819.071L820.347 1224.88H839.216Z" fill="white" stroke="#2E353A" stroke-miterlimit="10"/>
<path d="M895.862 1224.88L892.073 1211.71H873.804L876.992 1224.88H895.862Z" fill="white" stroke="#2E353A" stroke-miterlimit="10"/>
<path d="M782.57 1224.88V1211.71H764.301L763.664 1224.88H782.57Z" fill="white" stroke="#2E353A" stroke-miterlimit="10"/>
<path d="M820.346 1224.88L819.071 1211.71H800.802L801.44 1224.88H820.346Z" fill="white" stroke="#2E353A" stroke-miterlimit="10"/>
<path d="M801.44 1224.88L800.802 1211.71H782.57V1224.88H801.44Z" fill="white" stroke="#2E353A" stroke-miterlimit="10"/>
<path d="M763.664 1224.88L764.301 1211.71H746.032L744.794 1224.88H763.664Z" fill="white" stroke="#2E353A" stroke-miterlimit="10"/>
<path d="M820.347 1224.88L821.697 1239.02H841.279L839.216 1224.88H820.347Z" fill="white" stroke="#2E353A" stroke-miterlimit="10"/>
<path d="M839.216 1224.88L841.28 1239.02H860.824L858.086 1224.88H839.216Z" fill="white" stroke="#2E353A" stroke-miterlimit="10"/>
<path d="M669.279 1224.88L665.228 1239.02H684.773L688.149 1224.88H669.279Z" fill="white" stroke="#2E353A" stroke-miterlimit="10"/>
<path d="M858.085 1224.88L860.824 1239.02H880.369L876.992 1224.88H858.085Z" fill="white" stroke="#2E353A" stroke-miterlimit="10"/>
<path d="M782.57 1224.88V1239.02H802.152L801.44 1224.88H782.57Z" fill="white" stroke="#2E353A" stroke-miterlimit="10"/>
<path d="M876.992 1224.88L880.368 1239.02H899.951L895.862 1224.88H876.992Z" fill="white" stroke="#2E353A" stroke-miterlimit="10"/>
<path d="M801.44 1224.88L802.153 1239.02H821.697L820.347 1224.88H801.44Z" fill="white" stroke="#2E353A" stroke-miterlimit="10"/>
<path d="M707.018 1224.88L704.317 1239.02H723.899L725.925 1224.88H707.018Z" fill="white" stroke="#2E353A" stroke-miterlimit="10"/>
<path d="M688.149 1224.88L684.772 1239.02H704.317L707.018 1224.88H688.149Z" fill="white" stroke="#2E353A" stroke-miterlimit="10"/>
<path d="M763.664 1224.88L763.026 1239.02H782.57V1224.88H763.664Z" fill="white" stroke="#2E353A" stroke-miterlimit="10"/>
<path d="M744.794 1224.88L743.444 1239.02H763.026L763.664 1224.88H744.794Z" fill="white" stroke="#2E353A" stroke-miterlimit="10"/>
<path d="M725.925 1224.88L723.899 1239.02H743.444L744.794 1224.88H725.925Z" fill="white" stroke="#2E353A" stroke-miterlimit="10"/>
<path d="M876.992 1224.88L873.803 1211.71H855.572L858.085 1224.88H876.992Z" fill="white" stroke="#2E353A" stroke-miterlimit="10"/>
<path d="M658.888 1199.37L663.127 1186.73H646.059L641.257 1199.37H658.888Z" fill="white" stroke="#2E353A" stroke-miterlimit="10"/>
<path d="M641.257 1199.37H624.938L619.687 1211.71H636.53L641.257 1199.37Z" fill="white" stroke="#2E353A" stroke-miterlimit="10"/>
<path d="M646.059 1186.73H630.34L624.938 1199.37H641.257L646.059 1186.73Z" fill="white" stroke="#2E353A" stroke-miterlimit="10"/>
<path d="M636.53 1211.71H619.687L614.06 1224.88H631.503L636.53 1211.71Z" fill="white" stroke="#2E353A" stroke-miterlimit="10"/>
<path d="M631.503 1224.88H614.06L608.02 1239.02H626.102L631.503 1224.88Z" fill="white" stroke="#2E353A" stroke-miterlimit="10"/>
<path d="M626.101 1239.02H608.02L601.567 1254.22H620.287L626.101 1239.02Z" fill="white" stroke="#2E353A" stroke-miterlimit="10"/>
<path d="M928.573 1211.71L933.638 1224.88H950.331L944.704 1211.71H928.573Z" fill="white" stroke="#2E353A" stroke-miterlimit="10"/>
<path d="M939.077 1239.02H956.371L950.331 1224.88H933.638L939.077 1239.02Z" fill="white" stroke="#2E353A" stroke-miterlimit="10"/>
<path d="M944.892 1254.22H962.823L956.371 1239.02H939.077L944.892 1254.22Z" fill="white" stroke="#2E353A" stroke-miterlimit="10"/>
<path d="M800.202 1199.37L799.601 1186.73H782.533V1199.37H800.202Z" fill="white" stroke="#2E353A" stroke-miterlimit="10"/>
<path d="M928.573 1211.71H944.704L939.452 1199.37H923.847L928.573 1211.71Z" fill="white" stroke="#2E353A" stroke-miterlimit="10"/>
<path d="M919.495 1239.02H939.077L933.637 1224.88H914.768L919.495 1239.02Z" fill="white" stroke="#2E353A" stroke-miterlimit="10"/>
<path d="M676.557 1199.37L680.196 1186.73H663.127L658.888 1199.37H676.557Z" fill="white" stroke="#2E353A" stroke-miterlimit="10"/>
<path d="M906.178 1199.37L910.304 1211.71H928.573L923.847 1199.37H906.178Z" fill="white" stroke="#2E353A" stroke-miterlimit="10"/>
<path d="M939.452 1199.37L934.088 1186.73H918.97L923.847 1199.37H939.452Z" fill="white" stroke="#2E353A" stroke-miterlimit="10"/>
<path d="M923.847 1199.37L918.97 1186.73H901.939L906.178 1199.37H923.847Z" fill="white" stroke="#2E353A" stroke-miterlimit="10"/>
<path d="M860.824 1239.02L863.75 1254.22H884.045L880.368 1239.02H860.824Z" fill="white" stroke="#2E353A" stroke-miterlimit="10"/>
<path d="M924.597 1254.22H944.892L939.077 1239.02H919.495L924.597 1254.22Z" fill="white" stroke="#2E353A" stroke-miterlimit="10"/>
<path d="M906.178 1199.37L901.939 1186.73H884.87L888.509 1199.37H906.178Z" fill="white" stroke="#2E353A" stroke-miterlimit="10"/>
<path d="M899.951 1239.02L904.302 1254.22H924.597L919.495 1239.02H899.951Z" fill="white" stroke="#2E353A" stroke-miterlimit="10"/>
<path d="M880.368 1239.02L884.044 1254.22H904.302L899.95 1239.02H880.368Z" fill="white" stroke="#2E353A" stroke-miterlimit="10"/>
<path d="M914.768 1224.88H933.638L928.573 1211.71H910.304L914.768 1224.88Z" fill="white" stroke="#2E353A" stroke-miterlimit="10"/>
<path d="M747.232 1199.37L748.433 1186.73H731.364L729.563 1199.37H747.232Z" fill="white" stroke="#2E353A" stroke-miterlimit="10"/>
<path d="M888.509 1199.37L884.87 1186.73H867.801L870.84 1199.37H888.509Z" fill="white" stroke="#2E353A" stroke-miterlimit="10"/>
<path d="M729.564 1199.37L731.365 1186.73H714.296L711.895 1199.37H729.564Z" fill="white" stroke="#2E353A" stroke-miterlimit="10"/>
<path d="M782.533 1199.37V1186.73H765.464L764.864 1199.37H782.533Z" fill="white" stroke="#2E353A" stroke-miterlimit="10"/>
<path d="M711.895 1199.37L714.296 1186.73H697.227L694.226 1199.37H711.895Z" fill="white" stroke="#2E353A" stroke-miterlimit="10"/>
<path d="M694.226 1199.37L697.227 1186.73H680.196L676.557 1199.37H694.226Z" fill="white" stroke="#2E353A" stroke-miterlimit="10"/>
<path d="M764.864 1199.37L765.464 1186.73H748.433L747.232 1199.37H764.864Z" fill="white" stroke="#2E353A" stroke-miterlimit="10"/>
<path d="M870.84 1199.37L867.801 1186.73H850.77L853.171 1199.37H870.84Z" fill="white" stroke="#2E353A" stroke-miterlimit="10"/>
<path d="M853.171 1199.37L850.77 1186.73H833.702L835.54 1199.37H853.171Z" fill="white" stroke="#2E353A" stroke-miterlimit="10"/>
<path d="M817.871 1199.37L816.633 1186.73H799.602L800.202 1199.37H817.871Z" fill="white" stroke="#2E353A" stroke-miterlimit="10"/>
<path d="M860.824 1239.02H841.279H821.697H802.153H782.57H763.026H743.444H723.899H704.317H684.773H665.228L660.876 1254.22H681.171H701.429H721.723H742.018H762.313H782.57H802.865H823.16H843.455H863.75L860.824 1239.02Z" fill="white" stroke="#2E353A" stroke-miterlimit="10"/>
<path d="M835.54 1199.37L833.702 1186.73H816.633L817.871 1199.37H835.54Z" fill="white" stroke="#2E353A" stroke-miterlimit="10"/>
<path d="M995.722 1280.89H560.978V1287.04H995.722V1280.89Z" fill="#2E353A" stroke="#2E353A" stroke-miterlimit="10"/>
<path d="M1068.39 950.619H1323.48V1179.64H1068.39C1066.77 1179.64 1065.23 1179 1064.09 1177.86C1062.95 1176.72 1062.31 1175.17 1062.31 1173.56V956.733C1062.3 955.932 1062.46 955.138 1062.76 954.396C1063.06 953.654 1063.51 952.98 1064.08 952.412C1064.64 951.843 1065.31 951.392 1066.05 951.085C1066.79 950.777 1067.59 950.619 1068.39 950.619Z" fill="white" stroke="#2E353A" stroke-linecap="round" stroke-linejoin="round"/>
<path d="M1332.26 950.619H1069.17V1179.64H1332.26V950.619Z" fill="#2E353A" stroke="#2E353A" stroke-miterlimit="10"/>
<path d="M1317.89 968.738H1089.43V1161.52H1317.89V968.738Z" fill="white" stroke="#2E353A" stroke-linecap="round" stroke-linejoin="round"/>
<path d="M1167.46 1046.62L1201.52 994.66L1235.58 1046.62H1221.33V1127.98H1181.72V1046.62H1167.46Z" fill="#92E3A9"/>
<path d="M1069.17 1179.64L1268.6 1237.3H1537.46L1332.26 1179.64H1069.17Z" fill="white" stroke="#2E353A" stroke-linecap="round" stroke-linejoin="round"/>
<path d="M1282.14 1202.45L1257.19 1195.36L1246.28 1195.24L1271.15 1202.37L1282.14 1202.45Z" fill="white" stroke="#2E353A" stroke-width="0.25" stroke-miterlimit="10"/>
<path d="M1303.86 1202.63L1278.84 1195.58L1268.07 1195.47L1293.02 1202.56L1303.86 1202.63Z" fill="white" stroke="#2E353A" stroke-width="0.25" stroke-miterlimit="10"/>
<path d="M1382.71 1210.1L1393.14 1210.17L1367.22 1203.08L1356.83 1203.01L1382.71 1210.1Z" fill="white" stroke="#2E353A" stroke-width="0.25" stroke-miterlimit="10"/>
<path d="M1271.15 1202.37L1246.28 1195.24L1235.28 1195.13L1260.08 1202.3L1271.15 1202.37Z" fill="white" stroke="#2E353A" stroke-width="0.25" stroke-miterlimit="10"/>
<path d="M1248.98 1202.22L1224.18 1195.06L1213.04 1194.94L1237.76 1202.15L1248.98 1202.22Z" fill="white" stroke="#2E353A" stroke-width="0.25" stroke-miterlimit="10"/>
<path d="M1346.4 1202.93L1321.19 1195.96L1310.72 1195.88L1335.86 1202.86L1346.4 1202.93Z" fill="white" stroke="#2E353A" stroke-width="0.25" stroke-miterlimit="10"/>
<path d="M1356.83 1203.01L1331.58 1196.07L1321.19 1195.96L1346.4 1202.93L1356.83 1203.01Z" fill="white" stroke="#2E353A" stroke-width="0.25" stroke-miterlimit="10"/>
<path d="M1237.76 1202.15L1213.04 1194.94L1201.78 1194.83L1226.43 1202.07L1237.76 1202.15Z" fill="white" stroke="#2E353A" stroke-width="0.25" stroke-miterlimit="10"/>
<path d="M1314.59 1202.71L1289.53 1195.66L1278.84 1195.58L1303.86 1202.63L1314.59 1202.71Z" fill="white" stroke="#2E353A" stroke-width="0.25" stroke-miterlimit="10"/>
<path d="M1367.22 1203.08L1341.94 1196.18L1331.58 1196.07L1356.83 1203.01L1367.22 1203.08Z" fill="white" stroke="#2E353A" stroke-width="0.25" stroke-miterlimit="10"/>
<path d="M1335.86 1202.86L1310.72 1195.88L1300.15 1195.77L1325.28 1202.78L1335.86 1202.86Z" fill="white" stroke="#2E353A" stroke-width="0.25" stroke-miterlimit="10"/>
<path d="M1325.28 1202.78L1300.15 1195.77L1289.53 1195.66L1314.59 1202.71L1325.28 1202.78Z" fill="white" stroke="#2E353A" stroke-width="0.25" stroke-miterlimit="10"/>
<path d="M1293.02 1202.56L1268.07 1195.47L1257.19 1195.36L1282.14 1202.45L1293.02 1202.56Z" fill="white" stroke="#2E353A" stroke-width="0.25" stroke-miterlimit="10"/>
<path d="M1215.06 1201.96L1203.59 1201.88L1228.79 1209.35L1240.31 1209.42L1215.06 1201.96Z" fill="white" stroke="#2E353A" stroke-width="0.25" stroke-miterlimit="10"/>
<path d="M1190.46 1194.72L1179.05 1194.61L1203.59 1201.88L1215.06 1201.96L1190.46 1194.72Z" fill="white" stroke="#2E353A" stroke-width="0.25" stroke-miterlimit="10"/>
<path d="M1226.43 1202.07L1201.78 1194.83L1190.46 1194.72L1215.06 1201.96L1226.43 1202.07Z" fill="white" stroke="#2E353A" stroke-width="0.25" stroke-miterlimit="10"/>
<path d="M1254.64 1217L1281.24 1224.88H1292.87L1266.23 1217.04L1254.64 1217Z" fill="white" stroke="#2E353A" stroke-width="0.25" stroke-miterlimit="10"/>
<path d="M1240.31 1209.42L1228.79 1209.35L1254.64 1217L1266.23 1217.04L1240.31 1209.42Z" fill="white" stroke="#2E353A" stroke-width="0.25" stroke-miterlimit="10"/>
<path d="M1266.23 1217.04L1292.87 1224.88H1304.42L1277.71 1217.08L1266.23 1217.04Z" fill="white" stroke="#2E353A" stroke-width="0.25" stroke-miterlimit="10"/>
<path d="M1260.08 1202.3L1235.28 1195.13L1224.18 1195.06L1248.98 1202.22L1260.08 1202.3Z" fill="white" stroke="#2E353A" stroke-width="0.25" stroke-miterlimit="10"/>
<path d="M1285.55 1209.65L1260.08 1202.3L1248.98 1202.22L1274.37 1209.57L1285.55 1209.65Z" fill="white" stroke="#2E353A" stroke-width="0.25" stroke-miterlimit="10"/>
<path d="M1274.37 1209.57L1248.98 1202.22L1237.76 1202.15L1263.12 1209.54L1274.37 1209.57Z" fill="white" stroke="#2E353A" stroke-width="0.25" stroke-miterlimit="10"/>
<path d="M1296.66 1209.69L1271.15 1202.37L1260.08 1202.3L1285.55 1209.65L1296.66 1209.69Z" fill="white" stroke="#2E353A" stroke-width="0.25" stroke-miterlimit="10"/>
<path d="M1226.43 1202.07L1215.06 1201.96L1240.31 1209.42L1251.75 1209.46L1226.43 1202.07Z" fill="white" stroke="#2E353A" stroke-width="0.25" stroke-miterlimit="10"/>
<path d="M1409.27 1217.42L1419.7 1217.45L1393.14 1210.17L1382.71 1210.1L1409.27 1217.42Z" fill="white" stroke="#2E353A" stroke-width="0.25" stroke-miterlimit="10"/>
<path d="M1263.12 1209.54L1237.76 1202.15L1226.43 1202.07L1251.75 1209.46L1263.12 1209.54Z" fill="white" stroke="#2E353A" stroke-width="0.25" stroke-miterlimit="10"/>
<path d="M1240.31 1209.42L1266.23 1217.04L1277.71 1217.08L1251.75 1209.46L1240.31 1209.42Z" fill="white" stroke="#2E353A" stroke-width="0.25" stroke-miterlimit="10"/>
<path d="M1361.67 1210.02L1335.86 1202.86L1325.28 1202.78L1351.01 1209.95L1361.67 1210.02Z" fill="white" stroke="#2E353A" stroke-width="0.25" stroke-miterlimit="10"/>
<path d="M1351.01 1209.95L1325.28 1202.78L1314.59 1202.71L1340.32 1209.91L1351.01 1209.95Z" fill="white" stroke="#2E353A" stroke-width="0.25" stroke-miterlimit="10"/>
<path d="M1382.71 1210.1L1356.83 1203.01L1346.4 1202.93L1372.25 1210.06L1382.71 1210.1Z" fill="white" stroke="#2E353A" stroke-width="0.25" stroke-miterlimit="10"/>
<path d="M1318.64 1209.8L1293.02 1202.56L1282.14 1202.45L1307.69 1209.72L1318.64 1209.8Z" fill="white" stroke="#2E353A" stroke-width="0.25" stroke-miterlimit="10"/>
<path d="M1340.32 1209.91L1314.59 1202.71L1303.86 1202.63L1329.52 1209.84L1340.32 1209.91Z" fill="white" stroke="#2E353A" stroke-width="0.25" stroke-miterlimit="10"/>
<path d="M1329.52 1209.84L1303.86 1202.63L1293.02 1202.56L1318.64 1209.8L1329.52 1209.84Z" fill="white" stroke="#2E353A" stroke-width="0.25" stroke-miterlimit="10"/>
<path d="M1307.69 1209.72L1282.14 1202.45L1271.15 1202.37L1296.66 1209.69L1307.69 1209.72Z" fill="white" stroke="#2E353A" stroke-width="0.25" stroke-miterlimit="10"/>
<path d="M1340.32 1209.91L1366.69 1217.3L1377.46 1217.34L1351.01 1209.95L1340.32 1209.91Z" fill="white" stroke="#2E353A" stroke-width="0.25" stroke-miterlimit="10"/>
<path d="M1351.01 1209.95L1377.46 1217.34L1388.11 1217.38L1361.67 1210.02L1351.01 1209.95Z" fill="white" stroke="#2E353A" stroke-width="0.25" stroke-miterlimit="10"/>
<path d="M1251.75 1209.46L1277.71 1217.08L1289.15 1217.11L1263.12 1209.54L1251.75 1209.46Z" fill="white" stroke="#2E353A" stroke-width="0.25" stroke-miterlimit="10"/>
<path d="M1361.67 1210.02L1388.11 1217.38H1398.73L1372.25 1210.06L1361.67 1210.02Z" fill="white" stroke="#2E353A" stroke-width="0.25" stroke-miterlimit="10"/>
<path d="M1318.64 1209.8L1344.94 1217.23L1355.85 1217.26L1329.52 1209.84L1318.64 1209.8Z" fill="white" stroke="#2E353A" stroke-width="0.25" stroke-miterlimit="10"/>
<path d="M1372.25 1210.06L1398.73 1217.38L1409.27 1217.41L1382.71 1210.1L1372.25 1210.06Z" fill="white" stroke="#2E353A" stroke-width="0.25" stroke-miterlimit="10"/>
<path d="M1329.52 1209.84L1355.85 1217.27L1366.69 1217.3L1340.32 1209.91L1329.52 1209.84Z" fill="white" stroke="#2E353A" stroke-width="0.25" stroke-miterlimit="10"/>
<path d="M1274.37 1209.57L1300.45 1217.15H1311.7L1285.55 1209.65L1274.37 1209.57Z" fill="white" stroke="#2E353A" stroke-width="0.25" stroke-miterlimit="10"/>
<path d="M1263.12 1209.54L1289.15 1217.11L1300.45 1217.15L1274.37 1209.57L1263.12 1209.54Z" fill="white" stroke="#2E353A" stroke-width="0.25" stroke-miterlimit="10"/>
<path d="M1307.69 1209.72L1333.95 1217.23H1344.94L1318.64 1209.8L1307.69 1209.72Z" fill="white" stroke="#2E353A" stroke-width="0.25" stroke-miterlimit="10"/>
<path d="M1296.66 1209.69L1322.88 1217.19L1333.94 1217.23L1307.69 1209.72L1296.66 1209.69Z" fill="white" stroke="#2E353A" stroke-width="0.25" stroke-miterlimit="10"/>
<path d="M1285.55 1209.65L1311.7 1217.15L1322.88 1217.19L1296.66 1209.69L1285.55 1209.65Z" fill="white" stroke="#2E353A" stroke-width="0.25" stroke-miterlimit="10"/>
<path d="M1372.25 1210.06L1346.4 1202.93L1335.86 1202.86L1361.67 1210.02L1372.25 1210.06Z" fill="white" stroke="#2E353A" stroke-width="0.25" stroke-miterlimit="10"/>
<path d="M1190.46 1194.72L1164.23 1186.99L1152.9 1186.88L1179.05 1194.61L1190.46 1194.72Z" fill="white" stroke="#2E353A" stroke-width="0.25" stroke-miterlimit="10"/>
<path d="M1179.05 1194.61L1168.44 1194.49L1192.93 1201.81L1203.59 1201.88L1179.05 1194.61Z" fill="white" stroke="#2E353A" stroke-width="0.25" stroke-miterlimit="10"/>
<path d="M1152.9 1186.88L1142.36 1186.73L1168.44 1194.49L1179.05 1194.61L1152.9 1186.88Z" fill="white" stroke="#2E353A" stroke-width="0.25" stroke-miterlimit="10"/>
<path d="M1203.59 1201.88L1192.93 1201.81L1218.07 1209.31L1228.79 1209.35L1203.59 1201.88Z" fill="white" stroke="#2E353A" stroke-width="0.25" stroke-miterlimit="10"/>
<path d="M1228.79 1209.35L1218.07 1209.31L1243.87 1217H1254.64L1228.79 1209.35Z" fill="white" stroke="#2E353A" stroke-width="0.25" stroke-miterlimit="10"/>
<path d="M1254.64 1217H1243.87L1270.4 1224.88H1281.24L1254.64 1217Z" fill="white" stroke="#2E353A" stroke-width="0.25" stroke-miterlimit="10"/>
<path d="M1377.54 1203.16L1403.49 1210.21L1412.57 1210.29L1386.58 1203.24L1377.54 1203.16Z" fill="white" stroke="#2E353A" stroke-width="0.25" stroke-miterlimit="10"/>
<path d="M1430.09 1217.45L1439.21 1217.49L1412.57 1210.29L1403.5 1210.21L1430.09 1217.45Z" fill="white" stroke="#2E353A" stroke-width="0.25" stroke-miterlimit="10"/>
<path d="M1457.4 1224.88H1466.52L1439.21 1217.49L1430.09 1217.45L1457.4 1224.88Z" fill="white" stroke="#2E353A" stroke-width="0.25" stroke-miterlimit="10"/>
<path d="M1278.84 1195.58L1252.13 1188.04L1241.4 1187.93L1268.07 1195.47L1278.84 1195.58Z" fill="white" stroke="#2E353A" stroke-width="0.25" stroke-miterlimit="10"/>
<path d="M1377.54 1203.16L1386.58 1203.23L1361.22 1196.37L1352.18 1196.26L1377.54 1203.16Z" fill="white" stroke="#2E353A" stroke-width="0.25" stroke-miterlimit="10"/>
<path d="M1419.7 1217.45H1430.09L1403.49 1210.21L1393.14 1210.17L1419.7 1217.45Z" fill="white" stroke="#2E353A" stroke-width="0.25" stroke-miterlimit="10"/>
<path d="M1201.78 1194.83L1175.49 1187.14L1164.23 1186.99L1190.46 1194.72L1201.78 1194.83Z" fill="white" stroke="#2E353A" stroke-width="0.25" stroke-miterlimit="10"/>
<path d="M1341.94 1196.18L1367.22 1203.08L1377.54 1203.16L1352.18 1196.26L1341.94 1196.18Z" fill="white" stroke="#2E353A" stroke-width="0.25" stroke-miterlimit="10"/>
<path d="M1361.22 1196.37L1334.13 1189.02L1325.17 1188.9L1352.18 1196.26L1361.22 1196.37Z" fill="white" stroke="#2E353A" stroke-width="0.25" stroke-miterlimit="10"/>
<path d="M1352.18 1196.26L1325.17 1188.9L1314.93 1188.79L1341.93 1196.18L1352.18 1196.26Z" fill="white" stroke="#2E353A" stroke-width="0.25" stroke-miterlimit="10"/>
<path d="M1388.11 1217.38L1415.27 1224.88H1425.93L1398.73 1217.38H1388.11Z" fill="white" stroke="#2E353A" stroke-width="0.25" stroke-miterlimit="10"/>
<path d="M1446.97 1224.88H1457.4L1430.09 1217.45H1419.7L1446.97 1224.88Z" fill="white" stroke="#2E353A" stroke-width="0.25" stroke-miterlimit="10"/>
<path d="M1341.93 1196.18L1314.93 1188.79L1304.65 1188.68L1331.58 1196.07L1341.93 1196.18Z" fill="white" stroke="#2E353A" stroke-width="0.25" stroke-miterlimit="10"/>
<path d="M1409.27 1217.42L1436.47 1224.88H1446.97L1419.7 1217.45L1409.27 1217.42Z" fill="white" stroke="#2E353A" stroke-width="0.25" stroke-miterlimit="10"/>
<path d="M1398.73 1217.38L1425.93 1224.88H1436.47L1409.27 1217.41L1398.73 1217.38Z" fill="white" stroke="#2E353A" stroke-width="0.25" stroke-miterlimit="10"/>
<path d="M1393.14 1210.17L1403.5 1210.21L1377.54 1203.16L1367.22 1203.08L1393.14 1210.17Z" fill="white" stroke="#2E353A" stroke-width="0.25" stroke-miterlimit="10"/>
<path d="M1246.28 1195.24L1219.75 1187.67L1208.8 1187.52L1235.28 1195.13L1246.28 1195.24Z" fill="white" stroke="#2E353A" stroke-width="0.25" stroke-miterlimit="10"/>
<path d="M1331.58 1196.07L1304.65 1188.68L1294.29 1188.53L1321.19 1195.96L1331.58 1196.07Z" fill="white" stroke="#2E353A" stroke-width="0.25" stroke-miterlimit="10"/>
<path d="M1235.28 1195.13L1208.8 1187.52L1197.77 1187.4L1224.18 1195.06L1235.28 1195.13Z" fill="white" stroke="#2E353A" stroke-width="0.25" stroke-miterlimit="10"/>
<path d="M1268.07 1195.47L1241.4 1187.93L1230.63 1187.78L1257.19 1195.36L1268.07 1195.47Z" fill="white" stroke="#2E353A" stroke-width="0.25" stroke-miterlimit="10"/>
<path d="M1224.18 1195.06L1197.77 1187.4L1186.67 1187.25L1213.04 1194.94L1224.18 1195.06Z" fill="white" stroke="#2E353A" stroke-width="0.25" stroke-miterlimit="10"/>
<path d="M1213.04 1194.94L1186.67 1187.25L1175.49 1187.14L1201.78 1194.83L1213.04 1194.94Z" fill="white" stroke="#2E353A" stroke-width="0.25" stroke-miterlimit="10"/>
<path d="M1257.19 1195.36L1230.63 1187.78L1219.75 1187.67L1246.28 1195.24L1257.19 1195.36Z" fill="white" stroke="#2E353A" stroke-width="0.25" stroke-miterlimit="10"/>
<path d="M1321.19 1195.96L1294.29 1188.53L1283.86 1188.42L1310.72 1195.88L1321.19 1195.96Z" fill="white" stroke="#2E353A" stroke-width="0.25" stroke-miterlimit="10"/>
<path d="M1310.72 1195.88L1283.86 1188.42L1273.36 1188.3L1300.15 1195.77L1310.72 1195.88Z" fill="white" stroke="#2E353A" stroke-width="0.25" stroke-miterlimit="10"/>
<path d="M1289.53 1195.66L1262.78 1188.15L1252.13 1188.04L1278.84 1195.58L1289.53 1195.66Z" fill="white" stroke="#2E353A" stroke-width="0.25" stroke-miterlimit="10"/>
<path d="M1388.11 1217.38L1377.46 1217.34L1366.69 1217.3L1355.85 1217.27L1344.94 1217.23H1333.94L1322.88 1217.19L1311.7 1217.15H1300.45L1289.15 1217.11L1277.71 1217.08L1304.42 1224.88H1315.86H1327.27H1338.56H1349.74H1360.88H1371.91H1382.86H1393.74H1404.55H1415.27L1388.11 1217.38Z" fill="white" stroke="#2E353A" stroke-width="0.25" stroke-miterlimit="10"/>
<path d="M1300.15 1195.77L1273.36 1188.3L1262.78 1188.15L1289.53 1195.66L1300.15 1195.77Z" fill="white" stroke="#2E353A" stroke-width="0.25" stroke-miterlimit="10"/>
<path d="M1069.17 1179.64V1187.29L1268.52 1247.13L1268.6 1237.3L1069.17 1179.64Z" fill="white" stroke="#2E353A" stroke-linecap="round" stroke-linejoin="round"/>
<path d="M1537.46 1237.3H1268.6V1247.09H1537.46V1237.3Z" fill="#2E353A" stroke="#2E353A" stroke-linecap="round" stroke-linejoin="round"/>
<path d="M478.223 1179.64H223.131V950.619H478.223C479.835 950.619 481.381 951.259 482.52 952.398C483.66 953.538 484.3 955.084 484.3 956.696V1173.52C484.305 1174.33 484.152 1175.12 483.848 1175.86C483.545 1176.6 483.098 1177.28 482.534 1177.85C481.969 1178.41 481.297 1178.86 480.557 1179.17C479.818 1179.48 479.024 1179.64 478.223 1179.64Z" fill="white" stroke="#2E353A" stroke-linecap="round" stroke-linejoin="round"/>
<path d="M214.352 1179.64H477.435V950.618H214.352V1179.64Z" fill="#2E353A" stroke="#2E353A" stroke-miterlimit="10"/>
<path d="M228.72 1161.52H457.178V968.738H228.72L228.72 1161.52Z" fill="white" stroke="#2E353A" stroke-linecap="round" stroke-linejoin="round"/>
<path d="M364.857 1046.62L330.795 994.66L296.732 1046.62H310.988V1127.98H350.602V1046.62H364.857Z" fill="#92E3A9"/>
<path d="M477.435 1179.64L278.013 1237.3H9.15332L214.353 1179.64H477.435Z" fill="white" stroke="#2E353A" stroke-linecap="round" stroke-linejoin="round"/>
<path d="M264.471 1202.45L289.417 1195.36L300.334 1195.24L275.462 1202.37L264.471 1202.45Z" fill="white" stroke="#2E353A" stroke-width="0.25" stroke-miterlimit="10"/>
<path d="M242.75 1202.63L267.772 1195.58L278.538 1195.47L253.591 1202.56L242.75 1202.63Z" fill="white" stroke="#2E353A" stroke-width="0.25" stroke-miterlimit="10"/>
<path d="M163.897 1210.1L153.468 1210.17L179.39 1203.08L189.781 1203.01L163.897 1210.1Z" fill="white" stroke="#2E353A" stroke-width="0.25" stroke-miterlimit="10"/>
<path d="M275.462 1202.37L300.333 1195.24L311.325 1195.13L286.528 1202.3L275.462 1202.37Z" fill="white" stroke="#2E353A" stroke-width="0.25" stroke-miterlimit="10"/>
<path d="M297.633 1202.22L322.429 1195.06L333.571 1194.94L308.849 1202.15L297.633 1202.22Z" fill="white" stroke="#2E353A" stroke-width="0.25" stroke-miterlimit="10"/>
<path d="M200.21 1202.93L225.419 1195.96L235.885 1195.88L210.751 1202.86L200.21 1202.93Z" fill="white" stroke="#2E353A" stroke-width="0.25" stroke-miterlimit="10"/>
<path d="M189.781 1203.01L215.028 1196.07L225.419 1195.96L200.21 1202.93L189.781 1203.01Z" fill="white" stroke="#2E353A" stroke-width="0.25" stroke-miterlimit="10"/>
<path d="M308.849 1202.15L333.571 1194.94L344.825 1194.83L320.178 1202.07L308.849 1202.15Z" fill="white" stroke="#2E353A" stroke-width="0.25" stroke-miterlimit="10"/>
<path d="M232.021 1202.71L257.081 1195.66L267.772 1195.58L242.75 1202.63L232.021 1202.71Z" fill="white" stroke="#2E353A" stroke-width="0.25" stroke-miterlimit="10"/>
<path d="M179.39 1203.08L204.674 1196.18L215.028 1196.07L189.781 1203.01L179.39 1203.08Z" fill="white" stroke="#2E353A" stroke-width="0.25" stroke-miterlimit="10"/>
<path d="M210.751 1202.86L235.885 1195.88L246.464 1195.77L221.33 1202.78L210.751 1202.86Z" fill="white" stroke="#2E353A" stroke-width="0.25" stroke-miterlimit="10"/>
<path d="M221.33 1202.78L246.464 1195.77L257.08 1195.66L232.021 1202.71L221.33 1202.78Z" fill="white" stroke="#2E353A" stroke-width="0.25" stroke-miterlimit="10"/>
<path d="M253.592 1202.56L278.538 1195.47L289.417 1195.36L264.471 1202.45L253.592 1202.56Z" fill="white" stroke="#2E353A" stroke-width="0.25" stroke-miterlimit="10"/>
<path d="M331.545 1201.96L343.024 1201.88L317.815 1209.35L306.298 1209.42L331.545 1201.96Z" fill="white" stroke="#2E353A" stroke-width="0.25" stroke-miterlimit="10"/>
<path d="M356.154 1194.72L367.558 1194.61L343.024 1201.88L331.545 1201.96L356.154 1194.72Z" fill="white" stroke="#2E353A" stroke-width="0.25" stroke-miterlimit="10"/>
<path d="M320.178 1202.07L344.825 1194.83L356.154 1194.72L331.545 1201.96L320.178 1202.07Z" fill="white" stroke="#2E353A" stroke-width="0.25" stroke-miterlimit="10"/>
<path d="M291.968 1217L265.371 1224.88H253.742L280.376 1217.04L291.968 1217Z" fill="white" stroke="#2E353A" stroke-width="0.25" stroke-miterlimit="10"/>
<path d="M306.298 1209.42L317.815 1209.35L291.968 1217L280.376 1217.04L306.298 1209.42Z" fill="white" stroke="#2E353A" stroke-width="0.25" stroke-miterlimit="10"/>
<path d="M280.376 1217.04L253.742 1224.88H242.188L268.86 1217.08L280.376 1217.04Z" fill="white" stroke="#2E353A" stroke-width="0.25" stroke-miterlimit="10"/>
<path d="M286.529 1202.3L311.325 1195.13L322.429 1195.06L297.633 1202.22L286.529 1202.3Z" fill="white" stroke="#2E353A" stroke-width="0.25" stroke-miterlimit="10"/>
<path d="M261.057 1209.65L286.528 1202.3L297.632 1202.22L272.236 1209.57L261.057 1209.65Z" fill="white" stroke="#2E353A" stroke-width="0.25" stroke-miterlimit="10"/>
<path d="M272.236 1209.57L297.633 1202.22L308.849 1202.15L283.49 1209.54L272.236 1209.57Z" fill="white" stroke="#2E353A" stroke-width="0.25" stroke-miterlimit="10"/>
<path d="M249.953 1209.69L275.462 1202.37L286.528 1202.3L261.057 1209.65L249.953 1209.69Z" fill="white" stroke="#2E353A" stroke-width="0.25" stroke-miterlimit="10"/>
<path d="M320.178 1202.07L331.545 1201.96L306.298 1209.42L294.856 1209.46L320.178 1202.07Z" fill="white" stroke="#2E353A" stroke-width="0.25" stroke-miterlimit="10"/>
<path d="M137.337 1217.42L126.908 1217.45L153.468 1210.17L163.897 1210.1L137.337 1217.42Z" fill="white" stroke="#2E353A" stroke-width="0.25" stroke-miterlimit="10"/>
<path d="M283.49 1209.54L308.849 1202.15L320.178 1202.07L294.857 1209.46L283.49 1209.54Z" fill="white" stroke="#2E353A" stroke-width="0.25" stroke-miterlimit="10"/>
<path d="M306.298 1209.42L280.377 1217.04L268.86 1217.08L294.857 1209.46L306.298 1209.42Z" fill="white" stroke="#2E353A" stroke-width="0.25" stroke-miterlimit="10"/>
<path d="M184.942 1210.02L210.751 1202.86L221.33 1202.78L195.596 1209.95L184.942 1210.02Z" fill="white" stroke="#2E353A" stroke-width="0.25" stroke-miterlimit="10"/>
<path d="M195.596 1209.95L221.33 1202.78L232.021 1202.71L206.287 1209.91L195.596 1209.95Z" fill="white" stroke="#2E353A" stroke-width="0.25" stroke-miterlimit="10"/>
<path d="M163.897 1210.1L189.781 1203.01L200.21 1202.93L174.363 1210.06L163.897 1210.1Z" fill="white" stroke="#2E353A" stroke-width="0.25" stroke-miterlimit="10"/>
<path d="M227.97 1209.8L253.591 1202.56L264.47 1202.45L238.924 1209.72L227.97 1209.8Z" fill="white" stroke="#2E353A" stroke-width="0.25" stroke-miterlimit="10"/>
<path d="M206.287 1209.91L232.021 1202.71L242.75 1202.63L217.091 1209.84L206.287 1209.91Z" fill="white" stroke="#2E353A" stroke-width="0.25" stroke-miterlimit="10"/>
<path d="M217.091 1209.84L242.75 1202.63L253.592 1202.56L227.97 1209.8L217.091 1209.84Z" fill="white" stroke="#2E353A" stroke-width="0.25" stroke-miterlimit="10"/>
<path d="M238.924 1209.72L264.471 1202.45L275.462 1202.37L249.953 1209.69L238.924 1209.72Z" fill="white" stroke="#2E353A" stroke-width="0.25" stroke-miterlimit="10"/>
<path d="M206.287 1209.91L179.915 1217.3L169.149 1217.34L195.596 1209.95L206.287 1209.91Z" fill="white" stroke="#2E353A" stroke-width="0.25" stroke-miterlimit="10"/>
<path d="M195.596 1209.95L169.148 1217.34L158.495 1217.38L184.942 1210.02L195.596 1209.95Z" fill="white" stroke="#2E353A" stroke-width="0.25" stroke-miterlimit="10"/>
<path d="M294.857 1209.46L268.86 1217.08L257.456 1217.11L283.49 1209.54L294.857 1209.46Z" fill="white" stroke="#2E353A" stroke-width="0.25" stroke-miterlimit="10"/>
<path d="M184.942 1210.02L158.495 1217.38H147.878L174.363 1210.06L184.942 1210.02Z" fill="white" stroke="#2E353A" stroke-width="0.25" stroke-miterlimit="10"/>
<path d="M227.97 1209.8L201.673 1217.23L190.756 1217.26L217.091 1209.84L227.97 1209.8Z" fill="white" stroke="#2E353A" stroke-width="0.25" stroke-miterlimit="10"/>
<path d="M174.363 1210.06L147.878 1217.38L137.337 1217.41L163.897 1210.1L174.363 1210.06Z" fill="white" stroke="#2E353A" stroke-width="0.25" stroke-miterlimit="10"/>
<path d="M217.091 1209.84L190.756 1217.27L179.915 1217.3L206.287 1209.91L217.091 1209.84Z" fill="white" stroke="#2E353A" stroke-width="0.25" stroke-miterlimit="10"/>
<path d="M272.236 1209.57L246.164 1217.15H234.91L261.057 1209.65L272.236 1209.57Z" fill="white" stroke="#2E353A" stroke-width="0.25" stroke-miterlimit="10"/>
<path d="M283.49 1209.54L257.456 1217.11L246.164 1217.15L272.236 1209.57L283.49 1209.54Z" fill="white" stroke="#2E353A" stroke-width="0.25" stroke-miterlimit="10"/>
<path d="M238.924 1209.72L212.664 1217.23H201.673L227.97 1209.8L238.924 1209.72Z" fill="white" stroke="#2E353A" stroke-width="0.25" stroke-miterlimit="10"/>
<path d="M249.953 1209.69L223.731 1217.19L212.665 1217.23L238.924 1209.72L249.953 1209.69Z" fill="white" stroke="#2E353A" stroke-width="0.25" stroke-miterlimit="10"/>
<path d="M261.057 1209.65L234.91 1217.15L223.731 1217.19L249.953 1209.69L261.057 1209.65Z" fill="white" stroke="#2E353A" stroke-width="0.25" stroke-miterlimit="10"/>
<path d="M174.363 1210.06L200.21 1202.93L210.751 1202.86L184.942 1210.02L174.363 1210.06Z" fill="white" stroke="#2E353A" stroke-width="0.25" stroke-miterlimit="10"/>
<path d="M356.154 1194.72L382.376 1186.99L393.705 1186.88L367.558 1194.61L356.154 1194.72Z" fill="white" stroke="#2E353A" stroke-width="0.25" stroke-miterlimit="10"/>
<path d="M367.558 1194.61L378.174 1194.49L353.678 1201.81L343.024 1201.88L367.558 1194.61Z" fill="white" stroke="#2E353A" stroke-width="0.25" stroke-miterlimit="10"/>
<path d="M393.705 1186.88L404.246 1186.73L378.174 1194.49L367.558 1194.61L393.705 1186.88Z" fill="white" stroke="#2E353A" stroke-width="0.25" stroke-miterlimit="10"/>
<path d="M343.024 1201.88L353.678 1201.81L328.544 1209.31L317.815 1209.35L343.024 1201.88Z" fill="white" stroke="#2E353A" stroke-width="0.25" stroke-miterlimit="10"/>
<path d="M317.815 1209.35L328.544 1209.31L302.735 1217H291.968L317.815 1209.35Z" fill="white" stroke="#2E353A" stroke-width="0.25" stroke-miterlimit="10"/>
<path d="M291.968 1217H302.735L276.213 1224.88H265.371L291.968 1217Z" fill="white" stroke="#2E353A" stroke-width="0.25" stroke-miterlimit="10"/>
<path d="M169.074 1203.16L143.114 1210.21L134.036 1210.29L160.033 1203.24L169.074 1203.16Z" fill="white" stroke="#2E353A" stroke-width="0.25" stroke-miterlimit="10"/>
<path d="M116.517 1217.45L107.401 1217.49L134.036 1210.29L143.114 1210.21L116.517 1217.45Z" fill="white" stroke="#2E353A" stroke-width="0.25" stroke-miterlimit="10"/>
<path d="M89.2073 1224.88H80.0916L107.401 1217.49L116.517 1217.45L89.2073 1224.88Z" fill="white" stroke="#2E353A" stroke-width="0.25" stroke-miterlimit="10"/>
<path d="M267.772 1195.58L294.482 1188.04L305.211 1187.93L278.538 1195.47L267.772 1195.58Z" fill="white" stroke="#2E353A" stroke-width="0.25" stroke-miterlimit="10"/>
<path d="M169.073 1203.16L160.033 1203.23L185.392 1196.37L194.395 1196.26L169.073 1203.16Z" fill="white" stroke="#2E353A" stroke-width="0.25" stroke-miterlimit="10"/>
<path d="M126.908 1217.45H116.517L143.114 1210.21L153.468 1210.17L126.908 1217.45Z" fill="white" stroke="#2E353A" stroke-width="0.25" stroke-miterlimit="10"/>
<path d="M344.825 1194.83L371.122 1187.14L382.376 1186.99L356.154 1194.72L344.825 1194.83Z" fill="white" stroke="#2E353A" stroke-width="0.25" stroke-miterlimit="10"/>
<path d="M204.674 1196.18L179.39 1203.08L169.074 1203.16L194.395 1196.26L204.674 1196.18Z" fill="white" stroke="#2E353A" stroke-width="0.25" stroke-miterlimit="10"/>
<path d="M185.392 1196.37L212.477 1189.02L221.442 1188.9L194.395 1196.26L185.392 1196.37Z" fill="white" stroke="#2E353A" stroke-width="0.25" stroke-miterlimit="10"/>
<path d="M194.395 1196.26L221.442 1188.9L231.683 1188.79L204.674 1196.18L194.395 1196.26Z" fill="white" stroke="#2E353A" stroke-width="0.25" stroke-miterlimit="10"/>
<path d="M158.495 1217.38L131.335 1224.88H120.681L147.878 1217.38H158.495Z" fill="white" stroke="#2E353A" stroke-width="0.25" stroke-miterlimit="10"/>
<path d="M99.6358 1224.88H89.207L116.517 1217.45H126.908L99.6358 1224.88Z" fill="white" stroke="#2E353A" stroke-width="0.25" stroke-miterlimit="10"/>
<path d="M204.674 1196.18L231.684 1188.79L241.962 1188.68L215.028 1196.07L204.674 1196.18Z" fill="white" stroke="#2E353A" stroke-width="0.25" stroke-miterlimit="10"/>
<path d="M137.337 1217.42L110.14 1224.88H99.636L126.908 1217.45L137.337 1217.42Z" fill="white" stroke="#2E353A" stroke-width="0.25" stroke-miterlimit="10"/>
<path d="M147.879 1217.38L120.681 1224.88H110.14L137.337 1217.41L147.879 1217.38Z" fill="white" stroke="#2E353A" stroke-width="0.25" stroke-miterlimit="10"/>
<path d="M153.468 1210.17L143.114 1210.21L169.074 1203.16L179.39 1203.08L153.468 1210.17Z" fill="white" stroke="#2E353A" stroke-width="0.25" stroke-miterlimit="10"/>
<path d="M300.333 1195.24L326.856 1187.67L337.81 1187.52L311.325 1195.13L300.333 1195.24Z" fill="white" stroke="#2E353A" stroke-width="0.25" stroke-miterlimit="10"/>
<path d="M215.028 1196.07L241.963 1188.68L252.316 1188.53L225.419 1195.96L215.028 1196.07Z" fill="white" stroke="#2E353A" stroke-width="0.25" stroke-miterlimit="10"/>
<path d="M311.325 1195.13L337.81 1187.52L348.839 1187.4L322.429 1195.06L311.325 1195.13Z" fill="white" stroke="#2E353A" stroke-width="0.25" stroke-miterlimit="10"/>
<path d="M278.538 1195.47L305.21 1187.93L315.977 1187.78L289.417 1195.36L278.538 1195.47Z" fill="white" stroke="#2E353A" stroke-width="0.25" stroke-miterlimit="10"/>
<path d="M322.429 1195.06L348.839 1187.4L359.943 1187.25L333.571 1194.94L322.429 1195.06Z" fill="white" stroke="#2E353A" stroke-width="0.25" stroke-miterlimit="10"/>
<path d="M333.57 1194.94L359.942 1187.25L371.121 1187.14L344.824 1194.83L333.57 1194.94Z" fill="white" stroke="#2E353A" stroke-width="0.25" stroke-miterlimit="10"/>
<path d="M289.417 1195.36L315.977 1187.78L326.856 1187.67L300.333 1195.24L289.417 1195.36Z" fill="white" stroke="#2E353A" stroke-width="0.25" stroke-miterlimit="10"/>
<path d="M225.419 1195.96L252.316 1188.53L262.745 1188.42L235.885 1195.88L225.419 1195.96Z" fill="white" stroke="#2E353A" stroke-width="0.25" stroke-miterlimit="10"/>
<path d="M235.885 1195.88L262.745 1188.42L273.249 1188.3L246.464 1195.77L235.885 1195.88Z" fill="white" stroke="#2E353A" stroke-width="0.25" stroke-miterlimit="10"/>
<path d="M257.081 1195.66L283.828 1188.15L294.482 1188.04L267.772 1195.58L257.081 1195.66Z" fill="white" stroke="#2E353A" stroke-width="0.25" stroke-miterlimit="10"/>
<path d="M158.495 1217.38L169.149 1217.34L179.915 1217.3L190.756 1217.27L201.673 1217.23H212.664L223.731 1217.19L234.91 1217.15H246.164L257.456 1217.11L268.86 1217.08L242.188 1224.88H230.746H219.342H208.088H196.871H185.73H174.701H163.747H152.868H142.064H131.335L158.495 1217.38Z" fill="white" stroke="#2E353A" stroke-width="0.25" stroke-miterlimit="10"/>
<path d="M246.464 1195.77L273.249 1188.3L283.828 1188.15L257.081 1195.66L246.464 1195.77Z" fill="white" stroke="#2E353A" stroke-width="0.25" stroke-miterlimit="10"/>
<path d="M477.435 1179.64V1187.29L278.05 1247.13L278.013 1237.3L477.435 1179.64Z" fill="white" stroke="#2E353A" stroke-linecap="round" stroke-linejoin="round"/>
<path d="M9.15298 1247.13H278.013V1237.33H9.15298V1247.13Z" fill="#2E353A" stroke="#2E353A" stroke-linecap="round" stroke-linejoin="round"/>
</svg>
