<svg width="2314" height="1724" viewBox="0 0 2314 1724" fill="none" xmlns="http://www.w3.org/2000/svg">
<path d="M2313.72 1515.02H0V1516.18H2313.72V1515.02Z" fill="#E6E6E6"/>
<path d="M1962.54 1579.95H1913.45V1581.1H1962.54V1579.95Z" fill="#E6E6E6"/>
<path d="M1879.48 1580.5H1679.81V1581.66H1879.48V1580.5Z" fill="#E6E6E6"/>
<path d="M1432.98 1569.49H1096.01V1570.65H1432.98V1569.49Z" fill="#E6E6E6"/>
<path d="M902.166 1589.57H795.226V1590.73H902.166V1589.57Z" fill="#E6E6E6"/>
<path d="M545.807 1570.04H398.562V1571.2H545.807V1570.04Z" fill="#E6E6E6"/>
<path d="M709.109 1570.04H571.489V1571.2H709.109V1570.04Z" fill="#E6E6E6"/>
<path d="M442.661 1549.82H302.126V1550.98H442.661V1549.82Z" fill="#E6E6E6"/>
<path d="M1096.7 1308.64H203.191C196.191 1308.63 189.482 1305.84 184.537 1300.89C179.592 1295.93 176.814 1289.22 176.814 1282.22V26.1913C176.875 19.2318 179.68 12.5773 184.618 7.67331C189.557 2.76933 196.231 0.0119221 203.191 0H1096.7C1103.71 0 1110.43 2.78381 1115.39 7.73903C1120.34 12.6942 1123.13 19.415 1123.13 26.4227V1282.22C1123.13 1289.23 1120.34 1295.95 1115.39 1300.9C1110.43 1305.86 1103.71 1308.64 1096.7 1308.64ZM203.191 0.925492C196.498 0.93775 190.083 3.60508 185.355 8.34201C180.627 13.079 177.971 19.4984 177.971 26.1913V1282.22C177.971 1288.91 180.627 1295.33 185.355 1300.07C190.083 1304.8 196.498 1307.47 203.191 1307.48H1096.7C1103.4 1307.47 1109.82 1304.81 1114.56 1300.07C1119.29 1295.33 1121.96 1288.92 1121.97 1282.22V26.1913C1121.96 19.4942 1119.29 13.0748 1114.56 8.33919C1109.82 3.60358 1103.4 0.937724 1096.7 0.925492H203.191Z" fill="#E6E6E6"/>
<path d="M2097.67 1308.64H1204.11C1197.1 1308.63 1190.39 1305.84 1185.44 1300.89C1180.48 1295.94 1177.7 1289.22 1177.68 1282.22V26.1913C1177.76 19.2275 1180.57 12.5731 1185.52 7.67042C1190.46 2.76771 1197.14 0.0117921 1204.11 0H2097.67C2104.62 0.0240835 2111.28 2.78687 2116.21 7.68955C2121.14 12.5922 2123.94 19.2398 2124 26.1913V1282.22C2124 1289.21 2121.23 1295.92 2116.29 1300.87C2111.35 1305.82 2104.66 1308.62 2097.67 1308.64ZM1204.11 0.925492C1197.41 0.937724 1190.99 3.60358 1186.25 8.33919C1181.52 13.0748 1178.85 19.4942 1178.84 26.1913V1282.22C1178.85 1288.92 1181.52 1295.33 1186.25 1300.07C1190.99 1304.81 1197.41 1307.47 1204.11 1307.48H2097.67C2104.36 1307.47 2110.78 1304.81 2115.52 1300.07C2120.25 1295.33 2122.92 1288.92 2122.93 1282.22V26.1913C2122.92 19.4942 2120.25 13.0748 2115.52 8.33919C2110.78 3.60358 2104.36 0.937724 2097.67 0.925492H1204.11Z" fill="#E6E6E6"/>
<path d="M971.023 99.3511H250.298V726.508H971.023V99.3511Z" fill="#E6E6E6"/>
<path d="M1000.55 99.3511H264.088V726.508H1000.55V99.3511Z" fill="#F0F0F0"/>
<path d="M971.023 726.509H250.298V751.682H971.023V726.509Z" fill="#E6E6E6"/>
<path d="M1049.69 726.509H313.232V751.682H1049.69V726.509Z" fill="#F0F0F0"/>
<path d="M959.269 685.232V140.628L305.411 140.628V685.232H959.269Z" fill="#FAFAFA"/>
<path d="M411.287 685.232L537.431 140.628H710.544L584.4 685.232H411.287Z" fill="white"/>
<path d="M329.196 594.21C328.411 594.21 327.657 593.898 327.102 593.342C326.547 592.787 326.235 592.034 326.235 591.248V167.467C326.235 166.682 326.547 165.928 327.102 165.373C327.657 164.818 328.411 164.506 329.196 164.506C329.982 164.506 330.735 164.818 331.29 165.373C331.846 165.928 332.158 166.682 332.158 167.467V591.248C332.158 592.034 331.846 592.787 331.29 593.342C330.735 593.898 329.982 594.21 329.196 594.21Z" fill="#E6E6E6"/>
<path d="M619.892 685.232L746.036 140.628H805.916L679.771 685.232H619.892Z" fill="white"/>
<path d="M959.223 685.186V140.582H953.994V685.186H959.223Z" fill="#E6E6E6"/>
<path d="M1010.31 145.117H289.585L285.791 132.576H1006.52L1010.31 145.117Z" fill="#E0E0E0"/>
<path d="M1010.31 165.801H289.585L285.791 153.261H1006.52L1010.31 165.801Z" fill="#E0E0E0"/>
<path d="M1010.31 186.486H289.585L285.791 173.946H1006.52L1010.31 186.486Z" fill="#E0E0E0"/>
<path d="M1010.31 207.17H289.585L285.791 194.63H1006.52L1010.31 207.17Z" fill="#E0E0E0"/>
<path d="M1010.31 227.855H289.585L285.791 215.315H1006.52L1010.31 227.855Z" fill="#E0E0E0"/>
<path d="M1010.31 248.54H289.585L285.791 236H1006.52L1010.31 248.54Z" fill="#E0E0E0"/>
<path d="M1865.74 140.165H1562.69V680.419H1865.74V140.165Z" fill="#E6E6E6"/>
<path d="M1733.39 168.717C1728.83 168.671 1724.38 167.275 1720.6 164.705C1716.83 162.135 1713.9 158.506 1712.18 154.275C1710.47 150.043 1710.04 145.398 1710.96 140.925C1711.88 136.453 1714.1 132.352 1717.35 129.139C1720.59 125.926 1724.71 123.745 1729.2 122.871C1733.68 121.997 1738.32 122.469 1742.53 124.226C1746.75 125.984 1750.35 128.95 1752.88 132.749C1755.41 136.549 1756.76 141.013 1756.76 145.579C1756.7 151.737 1754.21 157.622 1749.84 161.954C1745.46 166.287 1739.55 168.717 1733.39 168.717ZM1733.39 126.607C1729.74 126.653 1726.19 127.777 1723.17 129.838C1720.16 131.9 1717.82 134.806 1716.46 138.192C1715.09 141.578 1714.76 145.292 1715.5 148.868C1716.24 152.443 1718.02 155.719 1720.62 158.285C1723.22 160.85 1726.51 162.59 1730.1 163.286C1733.68 163.982 1737.39 163.602 1740.76 162.194C1744.13 160.787 1747.01 158.414 1749.03 155.376C1751.05 152.337 1752.13 148.768 1752.13 145.117C1752.14 142.666 1751.65 140.24 1750.7 137.979C1749.76 135.719 1748.38 133.668 1746.63 131.946C1744.89 130.224 1742.82 128.865 1740.55 127.949C1738.28 127.032 1735.84 126.576 1733.39 126.607Z" fill="#E0E0E0"/>
<path d="M1898.5 140.165H1585.5V680.419H1898.5V140.165Z" fill="#F0F0F0"/>
<path d="M1872.31 654.181V166.356L1611.74 166.356V654.181H1872.31Z" fill="#FAFAFA"/>
<path d="M1872.31 654.181V166.356H1869.07V654.181H1872.31Z" fill="#E0E0E0"/>
<path d="M1641.63 872.551C1641.63 872.551 1644.87 927.016 1768.66 927.016C1892.44 927.016 1895.63 872.551 1895.63 872.551H1641.63Z" fill="#E6E6E6"/>
<path d="M1391.29 969.773H1264.87V1490.45H1391.29V969.773Z" fill="#E6E6E6"/>
<path d="M1949.68 1490.45H1289.16V1515.02H1949.68V1490.45Z" fill="#E6E6E6"/>
<path d="M1391.29 1490.45H1973.93V969.773L1391.29 969.773V1490.45Z" fill="#F5F5F5"/>
<path d="M1440.99 1293.69H1924.23V1166.53H1440.99V1293.69Z" fill="#E6E6E6"/>
<path d="M1440.99 1444.09H1924.23V1316.92H1440.99V1444.09Z" fill="#E6E6E6"/>
<path d="M1754.87 1180.46H1610.35C1608.04 1180.46 1605.83 1179.54 1604.2 1177.91C1602.57 1176.28 1601.65 1174.07 1601.65 1171.76C1601.65 1169.45 1602.57 1167.23 1604.2 1165.59C1605.83 1163.95 1608.04 1163.03 1610.35 1163.02H1754.87C1757.18 1163.03 1759.39 1163.95 1761.02 1165.59C1762.65 1167.23 1763.56 1169.45 1763.56 1171.76C1763.56 1174.07 1762.65 1176.28 1761.02 1177.91C1759.39 1179.54 1757.17 1180.46 1754.87 1180.46Z" fill="#F5F5F5"/>
<path d="M1440.99 1143.3H1924.23V1016.14H1440.99V1143.3Z" fill="#E6E6E6"/>
<path d="M1754.87 1030.11H1610.35C1608.04 1030.1 1605.83 1029.18 1604.2 1027.54C1602.57 1025.9 1601.65 1023.68 1601.65 1021.37C1601.65 1019.06 1602.57 1016.85 1604.2 1015.22C1605.83 1013.59 1608.04 1012.67 1610.35 1012.67H1754.87C1757.17 1012.67 1759.39 1013.59 1761.02 1015.22C1762.65 1016.85 1763.56 1019.06 1763.56 1021.37C1763.56 1023.68 1762.65 1025.9 1761.02 1027.54C1759.39 1029.18 1757.18 1030.1 1754.87 1030.11Z" fill="#F5F5F5"/>
<path d="M1754.87 1330.85H1610.35C1608.04 1330.84 1605.83 1329.91 1604.2 1328.27C1602.57 1326.64 1601.65 1324.42 1601.65 1322.11C1601.65 1319.8 1602.57 1317.59 1604.2 1315.96C1605.83 1314.32 1608.04 1313.41 1610.35 1313.41H1754.87C1757.17 1313.41 1759.39 1314.32 1761.02 1315.96C1762.65 1317.59 1763.56 1319.8 1763.56 1322.11C1763.56 1324.42 1762.65 1326.64 1761.02 1328.27C1759.39 1329.91 1757.18 1330.84 1754.87 1330.85Z" fill="#F5F5F5"/>
<path d="M1990.77 927.016H1391.29V969.773H1990.77V927.016Z" fill="#EBEBEB"/>
<path d="M1247.19 969.819H1391.29V927.062H1247.19V969.819Z" fill="#E0E0E0"/>
<path d="M1313.55 927.016H1439.18V776.439H1313.55V927.016Z" fill="#E6E6E6"/>
<path d="M1662.13 776.485H1439.18V927.062H1662.13V776.485Z" fill="#FAFAFA"/>
<path d="M1602.07 856.077C1602.07 866.859 1578.93 875.558 1550.66 875.558C1522.38 875.558 1499.29 866.72 1499.29 856.077C1499.29 845.434 1522.43 836.595 1550.75 836.595C1579.07 836.595 1602.07 845.202 1602.07 856.077Z" fill="white"/>
<g style="mix-blend-mode:multiply" opacity="0.7">
<path d="M1313.55 806.054H1663.43V795.735H1313.55V806.054Z" fill="#E0E0E0"/>
</g>
<path d="M1306.56 800.131H1439.13V770.238H1306.56V800.131Z" fill="#E6E6E6"/>
<path d="M1669.03 770.192H1439.18V800.085H1669.03V770.192Z" fill="#FAFAFA"/>
<path d="M804.435 851.727H325.494L355.388 1515.02H834.328L804.435 851.727Z" fill="#E6E6E6"/>
<path d="M811.376 851.727H332.436L362.329 1515.02H841.269L811.376 851.727Z" fill="#FAFAFA"/>
<path d="M438.034 1515.02H563.669V1364.45H438.034V1515.02Z" fill="#E0E0E0"/>
<path d="M1165.14 1364.45H563.715V1515.02H1165.14V1364.45Z" fill="#F0F0F0"/>
<g style="mix-blend-mode:multiply" opacity="0.7">
<path d="M438.034 1394.06H1166.44V1383.74H438.034V1394.06Z" fill="#E0E0E0"/>
</g>
<path d="M431.139 1388.09H563.715V1358.2H431.139V1388.09Z" fill="#E0E0E0"/>
<path d="M1172.09 1358.2H563.715V1388.09H1172.09V1358.2Z" fill="#F0F0F0"/>
<path d="M542.197 1358.2H705.685V1086.15H542.197V1358.2Z" fill="#E6E6E6"/>
<path d="M1114.15 1086.15H705.639V1358.2H1114.15V1086.15Z" fill="#EBEBEB"/>
<g style="mix-blend-mode:multiply" opacity="0.7">
<path d="M542.151 1124.65H1115.86V1111.23H542.151V1124.65Z" fill="#E0E0E0"/>
</g>
<path d="M533.174 1116.88H705.685V1055.06H533.174V1116.88Z" fill="#E6E6E6"/>
<path d="M1123.17 1055.06H705.639V1116.88H1123.17V1055.06Z" fill="#EBEBEB"/>
<path d="M360.061 1515.02C423.876 1515.02 475.609 1463.29 475.609 1399.48C475.609 1335.66 423.876 1283.93 360.061 1283.93C296.246 1283.93 244.514 1335.66 244.514 1399.48C244.514 1463.29 296.246 1515.02 360.061 1515.02Z" fill="#F0F0F0"/>
<g style="mix-blend-mode:multiply" opacity="0.7">
<path d="M303.468 1330.57C310.316 1323.45 313.093 1314.93 309.576 1311.6C306.059 1308.27 297.683 1311.28 290.835 1318.4C283.986 1325.53 281.21 1334.05 284.68 1337.42C288.151 1340.8 296.573 1337.75 303.468 1330.57Z" fill="#E0E0E0"/>
</g>
<g style="mix-blend-mode:multiply" opacity="0.7">
<path d="M351.686 1308.92C361.403 1307.07 368.576 1301.7 367.65 1296.93C366.725 1292.17 358.118 1289.81 348.354 1291.7C338.59 1293.6 331.51 1298.92 332.389 1303.69C333.268 1308.46 341.737 1310.82 351.686 1308.92Z" fill="#E0E0E0"/>
</g>
<g style="mix-blend-mode:multiply" opacity="0.7">
<path d="M341.598 1349.27C350.853 1345.98 356.915 1338.67 354.878 1332.93C352.842 1327.2 343.634 1325.21 334.286 1328.31C324.939 1331.41 319.016 1338.9 321.006 1344.64C322.995 1350.38 332.25 1352.56 341.598 1349.27Z" fill="#E0E0E0"/>
</g>
<path d="M1156.86 1724C1652.38 1724 2054.08 1700.55 2054.08 1671.62C2054.08 1642.69 1652.38 1619.23 1156.86 1619.23C661.343 1619.23 259.646 1642.69 259.646 1671.62C259.646 1700.55 661.343 1724 1156.86 1724Z" fill="#F5F5F5"/>
<path d="M1421.74 261.173H889.209C851.846 261.173 821.556 291.462 821.556 328.826V1603.92C821.556 1641.28 851.846 1671.57 889.209 1671.57H1421.74C1459.1 1671.57 1489.39 1641.28 1489.39 1603.92V328.826C1489.39 291.462 1459.1 261.173 1421.74 261.173Z" fill="#407BFF"/>
<path opacity="0.7" d="M1421.74 261.173H889.209C851.846 261.173 821.556 291.462 821.556 328.826V1603.92C821.556 1641.28 851.846 1671.57 889.209 1671.57H1421.74C1459.1 1671.57 1489.39 1641.28 1489.39 1603.92V328.826C1489.39 291.462 1459.1 261.173 1421.74 261.173Z" fill="white"/>
<path d="M1439.6 258.767H907.071C869.707 258.767 839.418 289.056 839.418 326.42V1601.51C839.418 1638.88 869.707 1669.16 907.071 1669.16H1439.6C1476.96 1669.16 1507.25 1638.88 1507.25 1601.51V326.42C1507.25 289.056 1476.96 258.767 1439.6 258.767Z" fill="#407BFF"/>
<path opacity="0.2" d="M1439.6 258.767H907.071C869.707 258.767 839.418 289.056 839.418 326.42V1601.51C839.418 1638.88 869.707 1669.16 907.071 1669.16H1439.6C1476.96 1669.16 1507.25 1638.88 1507.25 1601.51V326.42C1507.25 289.056 1476.96 258.767 1439.6 258.767Z" fill="black"/>
<path d="M1199.39 1607.02C1199.4 1612.98 1197.64 1618.81 1194.33 1623.77C1191.02 1628.73 1186.32 1632.6 1180.81 1634.89C1175.31 1637.17 1169.24 1637.77 1163.4 1636.61C1157.55 1635.45 1152.18 1632.58 1147.96 1628.37C1143.74 1624.15 1140.87 1618.78 1139.71 1612.93C1138.55 1607.08 1139.15 1601.02 1141.44 1595.51C1143.73 1590.01 1147.59 1585.3 1152.55 1582C1157.52 1578.69 1163.35 1576.93 1169.31 1576.94C1177.29 1576.94 1184.94 1580.11 1190.58 1585.75C1196.22 1591.39 1199.39 1599.04 1199.39 1607.02Z" fill="#407BFF"/>
<path opacity="0.4" d="M1199.39 1607.02C1199.4 1612.98 1197.64 1618.81 1194.33 1623.77C1191.02 1628.73 1186.32 1632.6 1180.81 1634.89C1175.31 1637.17 1169.24 1637.77 1163.4 1636.61C1157.55 1635.45 1152.18 1632.58 1147.96 1628.37C1143.74 1624.15 1140.87 1618.78 1139.71 1612.93C1138.55 1607.08 1139.15 1601.02 1141.44 1595.51C1143.73 1590.01 1147.59 1585.3 1152.55 1582C1157.52 1578.69 1163.35 1576.93 1169.31 1576.94C1177.29 1576.94 1184.94 1580.11 1190.58 1585.75C1196.22 1591.39 1199.39 1599.04 1199.39 1607.02Z" fill="black"/>
<path d="M1501.88 1562.92H837.382V350.899H1506.51L1501.88 1562.92Z" fill="#407BFF"/>
<path opacity="0.8" d="M1507.76 1562.27L837.012 1563.06V350.992L1507.16 350.297L1507.76 1562.27Z" fill="white"/>
<path opacity="0.33" d="M786.804 371.213H782.177V432.388H786.804V371.213Z" fill="#407BFF"/>
<path opacity="0.33" d="M786.804 449.371H782.177V468.528H786.804V449.371Z" fill="#407BFF"/>
<path d="M1362.78 401.061H901.842C876.439 401.061 855.846 421.654 855.846 447.057V722.205C855.846 747.608 876.439 768.202 901.842 768.202H1362.78C1388.19 768.202 1408.78 747.608 1408.78 722.205V447.057C1408.78 421.654 1388.19 401.061 1362.78 401.061Z" fill="white"/>
<path opacity="0.27" d="M964.163 542.369C995.357 529.327 1010.07 493.465 997.03 462.271C983.987 431.076 948.126 416.361 916.931 429.404C885.736 442.446 871.021 478.308 884.064 509.502C897.107 540.697 932.968 555.412 964.163 542.369Z" fill="#407BFF"/>
<path d="M991.106 485.881C991.144 494.291 989.042 502.571 984.997 509.944C979.126 520.774 969.502 529.086 957.933 533.317C946.364 537.549 933.647 537.409 922.174 532.923C910.701 528.438 901.262 519.916 895.631 508.96C890 498.004 888.565 485.368 891.596 473.428C894.627 461.488 901.915 451.066 912.09 444.122C922.265 437.178 934.626 434.19 946.849 435.72C959.072 437.25 970.316 443.192 978.466 452.429C986.616 461.666 991.111 473.563 991.106 485.881Z" fill="white"/>
<path opacity="0.27" d="M984.998 509.898C980.66 517.898 974.244 524.578 966.424 529.234C958.605 533.889 949.674 536.346 940.574 536.346C931.474 536.346 922.543 533.889 914.724 529.234C906.905 524.578 900.488 517.898 896.151 509.898C909.302 501.118 924.761 496.432 940.574 496.432C956.387 496.432 971.846 501.118 984.998 509.898Z" fill="#407BFF"/>
<path opacity="0.27" d="M940.574 491.018C952.995 491.018 963.063 480.949 963.063 468.528C963.063 456.108 952.995 446.039 940.574 446.039C928.154 446.039 918.085 456.108 918.085 468.528C918.085 480.949 928.154 491.018 940.574 491.018Z" fill="#407BFF"/>
<path d="M1374.86 802.121H889.765C871.032 802.121 855.846 817.307 855.846 836.04V896.706C855.846 915.439 871.032 930.625 889.765 930.625H1374.86C1393.59 930.625 1408.78 915.439 1408.78 896.706V836.04C1408.78 817.307 1393.59 802.121 1374.86 802.121Z" fill="white"/>
<path opacity="0.6" d="M1502.76 943.073L1568.15 1123.27C1569.83 1127.98 1569.59 1133.17 1567.46 1137.7C1565.34 1142.23 1561.51 1145.74 1556.81 1147.47L1213.78 1271.9C1209.07 1273.59 1203.89 1273.35 1199.35 1271.23C1194.82 1269.12 1191.31 1265.3 1189.58 1260.61L1124.19 1080.37C1122.49 1075.66 1122.74 1070.47 1124.86 1065.95C1126.99 1061.42 1130.82 1057.92 1135.53 1056.21L1478.56 931.735C1483.27 930.05 1488.46 930.296 1493 932.42C1497.53 934.543 1501.04 938.372 1502.76 943.073Z" fill="#407BFF"/>
<path d="M1492.4 932.152L1394.34 1093.51C1385.26 1108.47 1371.34 1119.88 1354.89 1125.85C1338.43 1131.82 1320.43 1131.98 1303.87 1126.32L1125.16 1065.33C1127.32 1061.04 1131.02 1057.73 1135.53 1056.07L1478.56 931.597C1483.08 930.032 1488.02 930.23 1492.4 932.152Z" fill="#407BFF"/>
<path opacity="0.5" d="M1492.4 932.152L1394.34 1093.51C1385.26 1108.47 1371.34 1119.88 1354.89 1125.85C1338.43 1131.82 1320.43 1131.98 1303.87 1126.32L1125.16 1065.33C1127.32 1061.04 1131.02 1057.73 1135.53 1056.07L1478.56 931.597C1483.08 930.032 1488.02 930.23 1492.4 932.152Z" fill="white"/>
<path opacity="0.6" d="M1395.17 1252.79L1392.03 1415.12C1391.93 1419.35 1390.16 1423.38 1387.11 1426.32C1384.06 1429.25 1379.97 1430.87 1375.74 1430.81L1066.67 1424.79C1064.58 1424.75 1062.51 1424.29 1060.59 1423.45C1058.67 1422.61 1056.93 1421.4 1055.48 1419.89C1054.02 1418.37 1052.88 1416.59 1052.12 1414.64C1051.36 1412.68 1050.99 1410.6 1051.03 1408.5L1054.13 1246.17C1054.19 1243.97 1054.69 1241.81 1055.6 1239.82C1056.52 1237.82 1057.83 1236.03 1059.45 1234.56C1062.46 1231.86 1066.38 1230.41 1070.42 1230.48L1379.49 1236.45C1383.73 1236.55 1387.76 1238.32 1390.7 1241.38C1393.64 1244.44 1395.25 1248.54 1395.17 1252.79Z" fill="#407BFF"/>
<path d="M1390.32 1240.99L1263.71 1338.72C1251.97 1347.77 1237.49 1352.55 1222.66 1352.27C1207.84 1351.98 1193.56 1346.65 1182.17 1337.15L1059.68 1234.56C1062.7 1231.86 1066.61 1230.41 1070.65 1230.48L1379.72 1236.45C1383.69 1236.6 1387.47 1238.21 1390.32 1240.99Z" fill="#407BFF"/>
<path opacity="0.5" d="M1390.32 1240.99L1263.71 1338.72C1251.97 1347.77 1237.49 1352.55 1222.66 1352.27C1207.84 1351.98 1193.56 1346.65 1182.17 1337.15L1059.68 1234.56C1062.7 1231.86 1066.61 1230.41 1070.65 1230.48L1379.72 1236.45C1383.69 1236.6 1387.47 1238.21 1390.32 1240.99Z" fill="white"/>
<path d="M1083.42 296.943C1083.43 294.84 1084.06 292.787 1085.24 291.043C1086.41 289.299 1088.08 287.942 1090.03 287.143C1091.97 286.345 1094.11 286.14 1096.17 286.556C1098.23 286.972 1100.12 287.99 1101.61 289.48C1103.09 290.97 1104.1 292.867 1104.51 294.93C1104.92 296.993 1104.7 299.131 1103.89 301.073C1103.09 303.015 1101.72 304.674 1099.97 305.842C1098.23 307.009 1096.17 307.632 1094.07 307.632C1092.66 307.632 1091.28 307.356 1089.98 306.818C1088.69 306.28 1087.51 305.492 1086.52 304.499C1085.54 303.506 1084.75 302.327 1084.22 301.03C1083.69 299.734 1083.42 298.345 1083.42 296.943Z" fill="#407BFF"/>
<path d="M1130.85 286.3H1219.28C1222.1 286.312 1224.8 287.437 1226.8 289.431C1228.79 291.424 1229.92 294.124 1229.93 296.943C1229.93 299.77 1228.81 302.482 1226.81 304.485C1224.82 306.489 1222.11 307.62 1219.28 307.633H1130.85C1128.03 307.62 1125.32 306.489 1123.33 304.485C1121.33 302.482 1120.21 299.77 1120.21 296.943C1120.22 294.124 1121.35 291.424 1123.34 289.431C1125.34 287.437 1128.04 286.312 1130.85 286.3Z" fill="#407BFF"/>
<path opacity="0.4" d="M1083.42 296.943C1083.43 294.84 1084.06 292.787 1085.24 291.043C1086.41 289.299 1088.08 287.942 1090.03 287.143C1091.97 286.345 1094.11 286.14 1096.17 286.556C1098.23 286.972 1100.12 287.99 1101.61 289.48C1103.09 290.97 1104.1 292.867 1104.51 294.93C1104.92 296.993 1104.7 299.131 1103.89 301.073C1103.09 303.015 1101.72 304.674 1099.97 305.842C1098.23 307.009 1096.17 307.632 1094.07 307.632C1092.66 307.632 1091.28 307.356 1089.98 306.818C1088.69 306.28 1087.51 305.492 1086.52 304.499C1085.54 303.506 1084.75 302.327 1084.22 301.03C1083.69 299.734 1083.42 298.345 1083.42 296.943Z" fill="black"/>
<path opacity="0.4" d="M1130.85 286.3H1219.28C1222.1 286.312 1224.8 287.437 1226.8 289.431C1228.79 291.424 1229.92 294.124 1229.93 296.943C1229.93 299.77 1228.81 302.482 1226.81 304.485C1224.82 306.489 1222.11 307.62 1219.28 307.633H1130.85C1128.03 307.62 1125.32 306.489 1123.33 304.485C1121.33 302.482 1120.21 299.77 1120.21 296.943C1120.22 294.124 1121.35 291.424 1123.34 289.431C1125.34 287.437 1128.04 286.312 1130.85 286.3Z" fill="black"/>
<path d="M1508.18 500.736H1464.08C1453.83 500.736 1445.52 509.044 1445.52 519.292V653.627C1445.52 663.875 1453.83 672.183 1464.08 672.183H1508.18C1518.42 672.183 1526.73 663.875 1526.73 653.627V519.292C1526.73 509.044 1518.42 500.736 1508.18 500.736Z" fill="#407BFF"/>
<path opacity="0.8" d="M1508.18 500.736H1464.08C1453.83 500.736 1445.52 509.044 1445.52 519.292V653.627C1445.52 663.875 1453.83 672.183 1464.08 672.183H1508.18C1518.42 672.183 1526.73 663.875 1526.73 653.627V519.292C1526.73 509.044 1518.42 500.736 1508.18 500.736Z" fill="white"/>
<path d="M1512.8 721.65H1459.45C1451.76 721.65 1445.52 727.886 1445.52 735.578V804.435C1445.52 812.127 1451.76 818.363 1459.45 818.363H1512.8C1520.5 818.363 1526.73 812.127 1526.73 804.435V735.578C1526.73 727.886 1520.5 721.65 1512.8 721.65Z" fill="#407BFF"/>
<path opacity="0.8" d="M1512.8 721.65H1459.45C1451.76 721.65 1445.52 727.886 1445.52 735.578V804.435C1445.52 812.127 1451.76 818.363 1459.45 818.363H1512.8C1520.5 818.363 1526.73 812.127 1526.73 804.435V735.578C1526.73 727.886 1520.5 721.65 1512.8 721.65Z" fill="white"/>
<mask id="mask0_3016_3062" style="mask-type:luminance" maskUnits="userSpaceOnUse" x="820" y="346" width="668" height="1213">
<path d="M1487.95 346.179H820.122V1558.24H1487.95V346.179Z" fill="white"/>
</mask>
<g mask="url(#mask0_3016_3062)">
<path d="M920.769 1529.05L954.78 1532.33L990.18 1451.4L956.169 1448.07L920.769 1529.05Z" fill="#E4897B"/>
<path d="M990.18 1451.4L971.948 1493.14H936.456L956.122 1448.07L990.18 1451.4Z" fill="#CE6F64"/>
<path d="M1303.23 700.687L1304.34 703.186L1305.77 706.101C1306.7 708.045 1307.76 710.035 1308.83 712.024C1311 715.958 1313.45 719.937 1315.77 723.732C1320.64 731.5 1326 738.95 1331.82 746.036C1337.75 753.054 1344.07 759.728 1350.75 766.027C1354.22 769.081 1357.6 772.227 1361.21 775.282L1366.62 779.539L1367.87 780.557C1367.28 780.374 1366.68 780.25 1366.07 780.187C1364.73 780.049 1363.37 780.256 1362.13 780.788C1361.38 781.008 1360.7 781.442 1360.19 782.038C1359.87 782.5 1360.7 781.76 1361.39 780.557C1363.23 777.183 1364.67 773.612 1365.7 769.914C1368.24 760.927 1370.23 751.794 1371.67 742.566C1373.24 733.033 1374.54 723.269 1375.55 713.505C1376.57 703.741 1377.64 693.792 1378.56 684.075L1396.42 683.797C1397.53 694.116 1398 704.158 1398.41 714.431C1398.83 724.704 1398.64 734.884 1398.41 745.296C1398.01 756.001 1396.78 766.659 1394.76 777.179C1393.59 783.239 1391.71 789.141 1389.16 794.763C1387.31 798.742 1384.77 802.362 1381.66 805.453C1379.25 807.721 1376.42 809.497 1373.33 810.682C1369.73 812.03 1365.86 812.505 1362.04 812.07C1358.94 811.662 1355.94 810.723 1353.16 809.293C1352.05 808.734 1350.96 808.116 1349.92 807.442L1348.16 806.286L1341.4 801.658C1336.78 798.604 1332.7 795.226 1328.49 791.848C1320.17 784.895 1312.36 777.348 1305.12 769.266C1297.95 761.112 1291.34 752.469 1285.36 743.399C1282.4 738.771 1279.67 734.144 1277.04 729.516C1275.74 727.064 1274.49 724.657 1273.29 722.112L1271.53 718.179C1270.93 716.791 1270.46 715.68 1269.72 713.783L1303.23 700.687Z" fill="#E4897B"/>
<path d="M1318.87 724.611L1287.77 767.508L1300.64 780.141L1333.72 740.345L1318.87 724.611Z" fill="#F5F5F5"/>
<path d="M1270.09 668.018C1305.12 677.272 1329.28 726.416 1329.28 726.416L1288.84 783.102C1288.84 783.102 1240.15 721.881 1241.4 702.538C1242.61 682.27 1248.99 662.326 1270.09 668.018Z" fill="#407BFF"/>
<path opacity="0.7" d="M1270.09 668.018C1305.12 677.272 1329.28 726.416 1329.28 726.416L1288.84 783.102C1288.84 783.102 1240.15 721.881 1241.4 702.538C1242.61 682.27 1248.99 662.326 1270.09 668.018Z" fill="white"/>
<path d="M1300.31 686.111C1300.31 686.111 1311.83 699.715 1178.47 861.121L1055.06 788.84C1086.52 739.835 1104.71 708.878 1141.03 591.711C1160.44 598.238 1179.34 606.172 1197.58 615.45C1216.94 625.204 1235.68 636.161 1253.67 648.258C1276.43 664.547 1300.31 686.111 1300.31 686.111Z" fill="#407BFF"/>
<path opacity="0.7" d="M1300.31 686.111C1300.31 686.111 1311.83 699.715 1178.47 861.121L1055.06 788.84C1086.52 739.835 1104.71 708.878 1141.03 591.711C1160.44 598.238 1179.34 606.172 1197.58 615.45C1216.94 625.204 1235.68 636.161 1253.67 648.258C1276.43 664.547 1300.31 686.111 1300.31 686.111Z" fill="white"/>
<path d="M1284.3 672.182C1275.6 664.963 1264.45 656.032 1253.67 648.258C1235.77 636.008 1217.03 625.045 1197.58 615.45C1186.66 609.758 1175.46 604.76 1165.93 600.966C1164.4 603.511 1165.65 611.285 1170.33 622.669C1188.1 645.574 1229.37 679.308 1263.8 686.018C1279.81 683.705 1284.81 678.614 1284.3 672.182Z" fill="#F5F5F5"/>
<path d="M1170.33 622.669C1180.7 645.777 1194.5 667.182 1211.28 686.157C1228.74 687.901 1246.34 687.901 1263.8 686.157C1229.37 679.309 1188.1 645.575 1170.33 622.669Z" fill="#F5F5F5"/>
<path d="M1178.61 861.121C1178.61 861.121 1180.6 1178.19 1124.38 1269.72C1065.89 1364.91 989.625 1481.01 989.625 1481.01L923.591 1477.82C923.591 1477.82 1000.59 1306.05 1029.65 1226.32C1069.68 1116.42 1088.19 808.183 1088.19 808.183L1178.61 861.121Z" fill="#407BFF"/>
<path opacity="0.4" d="M1178.61 861.121C1178.61 861.121 1180.6 1178.19 1124.38 1269.72C1065.89 1364.91 989.625 1481.01 989.625 1481.01L923.591 1477.82C923.591 1477.82 1000.59 1306.05 1029.65 1226.32C1069.68 1116.42 1088.19 808.183 1088.19 808.183L1178.61 861.121Z" fill="black"/>
<path opacity="0.2" d="M1108.37 869.959C1097.67 879.029 1088.48 889.726 1081.11 901.657C1079.03 925.257 1076.48 951.772 1073.57 979.537C1093.7 952.189 1109.61 904.202 1108.37 869.959Z" fill="black"/>
<path d="M1145.99 842.195C1145.99 842.195 1006.28 1040.53 919.241 1147.61C848.904 1233.91 645.297 1295.68 645.297 1295.68L620.448 1254.04C620.448 1254.04 782.408 1163.62 830.719 1105.22C985.368 918.27 983.424 821.325 1055.24 789.349L1145.99 842.195Z" fill="#407BFF"/>
<path opacity="0.4" d="M1145.99 842.195C1145.99 842.195 1006.28 1040.53 919.241 1147.61C848.904 1233.91 645.297 1295.68 645.297 1295.68L620.448 1254.04C620.448 1254.04 782.408 1163.62 830.719 1105.22C985.368 918.27 983.424 821.325 1055.24 789.349L1145.99 842.195Z" fill="black"/>
<path d="M1378.98 688.425L1369.72 651.405L1405.03 661.678C1405.03 661.678 1404.06 686.574 1391.84 694.672L1378.98 688.425Z" fill="#E4897B"/>
<path d="M1380.97 621.697L1405.77 634.237L1405.17 661.863L1369.86 651.59L1380.97 621.697Z" fill="#E4897B"/>
<path d="M937.428 635.301L905.035 615.403L937.428 598.097C937.428 598.097 954.04 616.606 950.986 630.952L937.428 635.301Z" fill="#E4897B"/>
<path d="M892.217 586.204L918.733 577.875L937.612 598.097L905.082 615.404L892.217 586.204Z" fill="#E4897B"/>
<path d="M959.315 1521.83H917.668C916.917 1521.83 916.189 1522.08 915.595 1522.54C915.001 1523 914.575 1523.65 914.383 1524.37L905.128 1557.46C904.901 1558.24 904.862 1559.06 905.013 1559.85C905.164 1560.65 905.502 1561.4 905.998 1562.04C906.495 1562.68 907.136 1563.2 907.869 1563.54C908.603 1563.89 909.408 1564.05 910.218 1564.03C924.841 1563.8 931.967 1562.97 950.338 1562.97C961.629 1562.97 990.874 1564.12 1006.47 1564.12C1022.06 1564.12 1024.98 1548.67 1018.64 1547.28C990.273 1541.03 973.984 1532.38 965.238 1524.14C963.629 1522.65 961.511 1521.82 959.315 1521.83Z" fill="#263238"/>
<path d="M1057.51 780.511L1045.48 788.331C1044.55 788.933 1045.06 790.413 1046.5 791.246L1176.06 866.998C1177.18 867.645 1178.42 867.645 1178.89 866.998L1186.48 856.586C1186.99 855.845 1186.48 854.642 1185.18 853.948L1060.24 780.788C1059.86 780.491 1059.4 780.308 1058.91 780.258C1058.43 780.209 1057.95 780.297 1057.51 780.511Z" fill="#263238"/>
<path d="M1130.9 644.788C1122.15 651.775 1113.83 657.421 1104.99 663.298C1096.15 669.175 1087.17 674.218 1077.92 679.216C1059.35 689.38 1039.8 697.643 1019.56 703.88C1017.07 704.76 1014.38 705.361 1011.84 706.055C1009.29 706.749 1006.84 707.444 1003.78 708.091C997.151 709.58 990.312 709.924 983.563 709.109C976.407 708.258 969.522 705.858 963.387 702.076C957.685 698.47 952.684 693.861 948.626 688.471C941.776 678.923 936.87 668.121 934.188 656.68C932.818 651.406 931.828 646.04 931.227 640.623C930.492 635.225 930.136 629.782 930.162 624.335L947.932 622.808C950.075 631.841 952.969 640.679 956.585 649.23C959.731 657.063 964.296 664.248 970.051 670.424C972.115 672.752 974.632 674.634 977.449 675.954C980.266 677.275 983.323 678.007 986.432 678.105C989.699 678.081 992.943 677.566 996.057 676.578C1000.08 675.283 1004.8 673.802 1009.11 672.229C1026.92 665.532 1044.14 657.376 1060.61 647.842C1069.03 643.215 1077.08 637.893 1085.23 632.757C1093.37 627.62 1101.38 621.836 1108.37 616.561L1130.9 644.788Z" fill="#E4897B"/>
<path d="M1073.66 632.664L1089.67 681.067L1104.71 672.043L1090.64 624.057L1073.66 632.664Z" fill="#F5F5F5"/>
<path d="M977.825 1528.72C973.975 1528.65 970.144 1528.17 966.395 1527.29C966.226 1527.24 966.073 1527.15 965.958 1527.02C965.843 1526.88 965.769 1526.72 965.747 1526.55C965.746 1526.37 965.793 1526.21 965.883 1526.06C965.973 1525.91 966.102 1525.79 966.256 1525.71C969.033 1524.37 983.285 1517.94 987.08 1520.48C987.444 1520.74 987.731 1521.09 987.91 1521.5C988.089 1521.91 988.154 1522.36 988.098 1522.8C988.078 1523.58 987.88 1524.34 987.519 1525.03C987.158 1525.72 986.644 1526.32 986.016 1526.78C983.552 1528.26 980.691 1528.94 977.825 1528.72ZM969.31 1526.18C973.938 1527.01 981.712 1527.94 984.998 1525.44C985.443 1525.12 985.805 1524.71 986.055 1524.22C986.305 1523.74 986.434 1523.2 986.432 1522.66C986.459 1522.52 986.447 1522.37 986.399 1522.23C986.35 1522.09 986.266 1521.97 986.154 1521.87C984.072 1520.49 975.511 1523.45 969.31 1526.18Z" fill="#407BFF"/>
<path d="M966.58 1527.29C966.417 1527.35 966.235 1527.35 966.071 1527.29C965.942 1527.2 965.845 1527.07 965.796 1526.92C965.746 1526.77 965.745 1526.6 965.794 1526.45C965.794 1525.81 969.403 1510.67 977.732 1511.74C979.907 1511.97 980.463 1513.08 980.601 1513.91C981.157 1517.89 971.624 1525.48 966.719 1527.43L966.58 1527.29ZM976.992 1513.17C971.994 1513.17 968.986 1521.27 967.737 1524.93C972.365 1522.29 979.121 1516.27 978.797 1513.96C978.797 1513.59 978.288 1513.31 977.408 1513.22L976.992 1513.17Z" fill="#407BFF"/>
<path d="M1066.12 804.342L1062.78 802.399C1062.14 801.982 1061.81 801.334 1062.09 800.964L1072.09 787.498C1072.36 787.128 1073.15 787.128 1073.8 787.498L1077.18 789.488C1077.82 789.858 1078.15 790.506 1077.87 790.876L1067.87 804.342C1067.6 804.713 1066.81 804.713 1066.12 804.342Z" fill="#407BFF"/>
<path d="M1165.84 862.694L1162.51 860.704C1161.86 860.334 1161.53 859.686 1161.81 859.316L1171.81 845.85C1172.09 845.48 1172.87 845.48 1173.52 845.85L1176.9 847.794C1177.55 848.21 1177.87 848.858 1177.55 849.228L1167.6 862.694C1167.32 863.064 1166.53 863.064 1165.84 862.694Z" fill="#407BFF"/>
<path d="M1116 833.495L1112.62 831.551C1111.97 831.181 1111.65 830.533 1111.97 830.117L1121.92 816.697C1122.25 816.281 1122.99 816.281 1123.68 816.697L1127.01 818.641C1127.71 819.011 1127.99 819.659 1127.71 820.075L1117.71 833.495C1117.43 833.911 1116.65 833.911 1116 833.495Z" fill="#407BFF"/>
<path opacity="0.4" d="M1066.12 804.342L1062.78 802.399C1062.14 801.982 1061.81 801.334 1062.09 800.964L1072.09 787.498C1072.36 787.128 1073.15 787.128 1073.8 787.498L1077.18 789.488C1077.82 789.858 1078.15 790.506 1077.87 790.876L1067.87 804.342C1067.6 804.713 1066.81 804.713 1066.12 804.342Z" fill="black"/>
<path opacity="0.4" d="M1165.84 862.694L1162.51 860.704C1161.86 860.334 1161.53 859.686 1161.81 859.316L1171.81 845.85C1172.09 845.48 1172.87 845.48 1173.52 845.85L1176.9 847.794C1177.55 848.21 1177.87 848.858 1177.55 849.228L1167.6 862.694C1167.32 863.064 1166.53 863.064 1165.84 862.694Z" fill="black"/>
<path opacity="0.4" d="M1116 833.495L1112.62 831.551C1111.97 831.181 1111.65 830.533 1111.97 830.117L1121.92 816.697C1122.25 816.281 1122.99 816.281 1123.68 816.697L1127.01 818.641C1127.71 819.011 1127.99 819.659 1127.71 820.075L1117.71 833.495C1117.43 833.911 1116.65 833.911 1116 833.495Z" fill="black"/>
<path d="M1208.6 624.705C1208.6 596.94 1199.34 487.686 1244.87 478.431C1259.27 463.253 1330.57 461.68 1341.5 500.273C1355.93 550.943 1334.55 674.589 1334.55 674.589L1208.6 624.705Z" fill="#263238"/>
<path d="M1344.04 674.866C1343.89 674.849 1343.74 674.802 1343.61 674.727C1343.47 674.652 1343.36 674.552 1343.26 674.431C1343.17 674.311 1343.1 674.173 1343.06 674.025C1343.01 673.877 1343 673.723 1343.02 673.57C1343.02 672.321 1358.06 548.63 1341.45 499.671C1336.82 486.252 1323.96 476.858 1304.89 473.156C1280.09 468.297 1253.25 474.359 1245.8 482.966C1245.58 483.178 1245.29 483.297 1244.99 483.297C1244.69 483.297 1244.4 483.178 1244.18 482.966C1243.97 482.742 1243.85 482.444 1243.85 482.133C1243.85 481.823 1243.97 481.524 1244.18 481.3C1252.88 471.212 1282.08 466.168 1305.49 470.75C1325.39 474.59 1339 484.632 1343.81 498.792C1360.56 548.352 1345.61 672.46 1345.48 673.709C1345.47 673.885 1345.43 674.058 1345.35 674.215C1345.28 674.373 1345.16 674.512 1345.03 674.622C1344.89 674.732 1344.73 674.811 1344.56 674.853C1344.39 674.896 1344.21 674.9 1344.04 674.866Z" fill="#263238"/>
<path d="M1240.15 555.617C1233.17 575.7 1217.34 610.822 1197.67 615.45C1197.67 615.45 1191.89 636.643 1225.44 656.264C1262.46 677.828 1253.76 648.258 1253.76 648.258C1236.45 631.692 1245.66 617.069 1257.37 605.131L1240.15 555.617Z" fill="#E4897B"/>
<path d="M1247.1 575.793L1257.28 605.084C1254.52 607.85 1252 610.837 1249.73 614.015C1242.7 608.416 1235.16 594.765 1239.04 586.251C1241.08 582.311 1243.81 578.768 1247.1 575.793Z" fill="#CE6F64"/>
<path d="M1240.43 515.59C1230.85 549.231 1226.09 563.252 1236.78 585.973C1252.83 620.216 1296.19 624.612 1315.44 594.534C1332.94 567.463 1345.61 517.024 1318.03 492.73C1311.99 487.351 1304.67 483.6 1296.77 481.832C1288.87 480.063 1280.65 480.335 1272.89 482.623C1265.13 484.91 1258.07 489.136 1252.39 494.904C1246.71 500.672 1242.6 507.791 1240.43 515.59Z" fill="#E4897B"/>
<path d="M1230.58 536.783C1254.5 545.714 1310.72 516.052 1326.04 497.867C1328.08 469.824 1262.32 480.884 1262.32 480.884C1262.32 480.884 1227.24 470.102 1230.58 536.783Z" fill="#263238"/>
<path d="M1224.88 543.493C1223.33 550.067 1224.44 556.991 1227.98 562.743C1232.61 570.332 1241.13 567.371 1244.83 559.874C1248.16 553.026 1249.69 540.763 1242.51 535.811C1240.92 534.761 1239.09 534.125 1237.18 533.961C1235.28 533.797 1233.37 534.111 1231.62 534.874C1229.87 535.637 1228.33 536.825 1227.16 538.33C1225.98 539.835 1225.2 541.61 1224.88 543.493Z" fill="#E4897B"/>
<path d="M1287.12 542.383C1286.15 545.066 1286.8 547.75 1288.56 548.352C1290.32 548.953 1292.49 547.288 1293.46 544.604C1294.43 541.92 1293.74 539.282 1291.98 538.634C1290.22 537.986 1288.05 539.699 1287.12 542.383Z" fill="#263238"/>
<path d="M1317.39 553.072C1316.46 555.756 1317.11 558.393 1318.87 559.041C1320.63 559.689 1322.8 557.977 1323.73 555.293C1324.65 552.609 1324 549.925 1322.29 549.324C1320.58 548.722 1318.36 550.388 1317.39 553.072Z" fill="#263238"/>
<path d="M1321.46 549.185L1328.54 549.601C1328.54 549.601 1323.45 553.488 1321.46 549.185Z" fill="#263238"/>
<path d="M1307.76 554.83C1308.01 561.775 1309.19 568.655 1311.28 575.284C1309.57 575.785 1307.77 575.904 1306.01 575.632C1304.25 575.36 1302.58 574.704 1301.1 573.71L1307.76 554.83Z" fill="#DE5753"/>
<path d="M1288.23 581.022H1287.96C1284.32 579.842 1281.03 577.811 1278.34 575.098C1275.65 572.385 1273.65 569.07 1272.5 565.427C1272.46 565.207 1272.5 564.979 1272.62 564.789C1272.74 564.6 1272.93 564.464 1273.15 564.409C1273.26 564.382 1273.37 564.378 1273.47 564.396C1273.58 564.415 1273.69 564.456 1273.78 564.517C1273.87 564.578 1273.95 564.658 1274.01 564.751C1274.07 564.844 1274.1 564.948 1274.12 565.057C1275.24 568.406 1277.12 571.449 1279.62 573.946C1282.12 576.444 1285.16 578.327 1288.51 579.448C1288.7 579.513 1288.86 579.642 1288.96 579.812C1289.06 579.982 1289.09 580.181 1289.06 580.376C1289.03 580.57 1288.92 580.746 1288.77 580.873C1288.62 581 1288.43 581.069 1288.23 581.068V581.022Z" fill="#263238"/>
<path d="M1285.78 531.786C1285.41 531.791 1285.04 531.669 1284.74 531.44C1284.44 531.211 1284.23 530.888 1284.14 530.524C1284.05 530.16 1284.09 529.775 1284.24 529.433C1284.39 529.091 1284.66 528.811 1284.99 528.639C1287.29 527.339 1289.87 526.606 1292.51 526.502C1295.15 526.397 1297.78 526.924 1300.17 528.037C1300.39 528.126 1300.58 528.259 1300.75 528.428C1300.91 528.597 1301.03 528.798 1301.11 529.018C1301.19 529.238 1301.22 529.472 1301.2 529.705C1301.19 529.938 1301.12 530.165 1301.01 530.371C1300.9 530.576 1300.74 530.756 1300.56 530.899C1300.37 531.042 1300.16 531.144 1299.93 531.199C1299.71 531.254 1299.47 531.26 1299.24 531.218C1299.01 531.175 1298.79 531.085 1298.6 530.953C1296.68 530.105 1294.6 529.721 1292.51 529.834C1290.42 529.946 1288.38 530.552 1286.57 531.601C1286.33 531.728 1286.06 531.791 1285.78 531.786Z" fill="#263238"/>
<path d="M1336.59 544.048C1336.23 544.047 1335.87 543.924 1335.59 543.697C1335.3 543.47 1335.1 543.154 1335.02 542.799C1334.55 540.762 1333.61 538.863 1332.28 537.255C1330.95 535.648 1329.25 534.376 1327.34 533.544C1326.92 533.396 1326.57 533.092 1326.37 532.695C1326.17 532.298 1326.14 531.839 1326.27 531.415C1326.34 531.205 1326.45 531.01 1326.59 530.843C1326.74 530.677 1326.92 530.542 1327.12 530.446C1327.32 530.351 1327.53 530.297 1327.75 530.289C1327.97 530.28 1328.19 530.317 1328.4 530.397C1330.85 531.403 1333.02 532.983 1334.73 535.005C1336.43 537.027 1337.63 539.43 1338.21 542.012C1338.27 542.225 1338.28 542.446 1338.25 542.664C1338.22 542.882 1338.14 543.091 1338.03 543.281C1337.92 543.47 1337.77 543.635 1337.6 543.767C1337.42 543.899 1337.22 543.994 1337.01 544.048H1336.59Z" fill="#263238"/>
<path d="M1291.06 538.542L1298.14 538.958C1298.14 538.958 1293.19 542.799 1291.06 538.542Z" fill="#263238"/>
<path d="M1141.13 591.711C1126.55 588.24 1081.71 622.391 1081.71 622.391L1100.73 683.057C1100.73 683.057 1147.61 657.097 1151.96 637.985C1156.26 618.18 1157.74 595.691 1141.13 591.711Z" fill="#407BFF"/>
<path opacity="0.7" d="M1141.13 591.711C1126.55 588.24 1081.71 622.391 1081.71 622.391L1100.73 683.057C1100.73 683.057 1147.61 657.097 1151.96 637.985C1156.26 618.18 1157.74 595.691 1141.13 591.711Z" fill="white"/>
</g>
<path d="M1675.13 205.644H1331.78C1317.05 205.644 1302.93 211.494 1292.51 221.908C1282.1 232.321 1276.25 246.446 1276.25 261.173V367.604C1276.25 382.331 1282.1 396.455 1292.51 406.869C1302.93 417.283 1317.05 423.133 1331.78 423.133H1360.47V477.737L1415.07 423.133H1675.13C1689.86 423.133 1703.99 417.283 1714.4 406.869C1724.81 396.455 1730.66 382.331 1730.66 367.604V261.173C1730.66 246.446 1724.81 232.321 1714.4 221.908C1703.99 211.494 1689.86 205.644 1675.13 205.644Z" fill="#407BFF"/>
<path opacity="0.3" d="M1675.13 205.644H1331.78C1317.05 205.644 1302.93 211.494 1292.51 221.908C1282.1 232.321 1276.25 246.446 1276.25 261.173V367.604C1276.25 382.331 1282.1 396.455 1292.51 406.869C1302.93 417.283 1317.05 423.133 1331.78 423.133H1360.47V477.737L1415.07 423.133H1675.13C1689.86 423.133 1703.99 417.283 1714.4 406.869C1724.81 396.455 1730.66 382.331 1730.66 367.604V261.173C1730.66 246.446 1724.81 232.321 1714.4 221.908C1703.99 211.494 1689.86 205.644 1675.13 205.644Z" fill="black"/>
<g opacity="0.54">
<path d="M1667.08 249.882H1339.74C1332.71 249.882 1327.01 255.579 1327.01 262.607C1327.01 269.635 1332.71 275.333 1339.74 275.333H1667.08C1674.11 275.333 1679.81 269.635 1679.81 262.607C1679.81 255.579 1674.11 249.882 1667.08 249.882Z" fill="#F5F5F5"/>
</g>
<g opacity="0.54">
<path d="M1667.04 325.911H1457.23C1453.84 325.899 1450.6 324.549 1448.21 322.157C1445.82 319.764 1444.47 316.523 1444.46 313.139C1444.47 309.76 1445.82 306.523 1448.21 304.138C1450.61 301.753 1453.85 300.414 1457.23 300.414H1667.04C1670.41 300.414 1673.65 301.754 1676.03 304.141C1678.42 306.527 1679.76 309.764 1679.76 313.139C1679.76 316.518 1678.42 319.76 1676.04 322.154C1673.65 324.548 1670.42 325.899 1667.04 325.911Z" fill="#F5F5F5"/>
</g>
<g opacity="0.54">
<path d="M1394.94 325.911H1339.74C1336.36 325.899 1333.12 324.548 1330.74 322.154C1328.35 319.76 1327.01 316.518 1327.01 313.139C1327.01 309.764 1328.35 306.527 1330.74 304.141C1333.13 301.754 1336.36 300.414 1339.74 300.414H1394.94C1398.32 300.414 1401.55 301.754 1403.94 304.141C1406.33 306.527 1407.67 309.764 1407.67 313.139C1407.67 316.518 1406.33 319.76 1403.94 322.154C1401.56 324.548 1398.32 325.899 1394.94 325.911Z" fill="#F5F5F5"/>
</g>
<g opacity="0.54">
<path d="M1585.32 376.443H1339.74C1336.36 376.443 1333.13 375.102 1330.74 372.715C1328.35 370.329 1327.01 367.092 1327.01 363.717C1327.01 360.338 1328.35 357.096 1330.74 354.702C1333.12 352.309 1336.36 350.958 1339.74 350.945H1585.32C1588.69 350.958 1591.93 352.309 1594.32 354.702C1596.7 357.096 1598.04 360.338 1598.04 363.717C1598.04 367.092 1596.7 370.329 1594.31 372.715C1591.93 375.102 1588.69 376.443 1585.32 376.443Z" fill="#F5F5F5"/>
</g>
</svg>
